<?xml version="1.0" encoding="UTF-8" standalone="no"?>
<!DOCTYPE svg PUBLIC "-//W3C//DTD SVG 1.1//EN" "http://www.w3.org/Graphics/SVG/1.1/DTD/svg11.dtd">
<svg xmlns="http://www.w3.org/2000/svg" version="1.1" viewBox="0.00 0.00 380.00 490.00">
<clipPath id="clipping-path-0">
<path d="
  M 0.00 0.00
  L 380.00 0.00
  L 380.00 490.00
  L 0.00 490.00
  L 0.00 0.00
  Z"/>
</clipPath>
<g stroke-width="2.00" fill="none" stroke-linecap="butt" clip-path="url(#clipping-path-0)">
<path stroke="#803c00" vector-effect="non-scaling-stroke" d="
  M 206.22 101.74
  Q 210.26 96.93 212.86 89.96
  A 2.93 2.92 -85.3 0 1 215.06 88.09
  L 223.35 86.50
  A 1.71 1.69 48.1 0 1 224.18 86.55
  Q 225.66 87.03 227.25 86.23
  Q 228.48 85.60 231.29 84.92
  Q 234.25 84.22 235.45 84.06
  Q 241.41 83.27 245.24 81.51
  A 4.00 3.86 -57.0 0 1 246.76 81.16
  Q 250.46 81.09 253.97 79.75
  C 255.97 78.98 258.48 79.31 260.00 77.57
  Q 260.32 77.21 261.05 77.15
  Q 261.51 77.12 261.83 77.33
  A 1.23 1.22 47.9 0 0 263.04 77.40
  Q 265.15 76.39 266.80 75.58
  C 268.33 74.84 269.76 75.26 271.33 74.10
  Q 273.49 72.50 277.07 72.13
  C 279.53 71.88 281.25 74.67 284.24 73.78
  A 1.60 0.27 -12.1 0 0 284.41 73.72
  L 287.26 72.39
  A 2.12 0.17 -9.2 0 1 288.64 72.05
  Q 290.25 71.76 291.75 70.89
  Q 295.29 68.82 301.86 67.80
  A 2.78 2.77 -70.6 0 0 303.31 67.10
  Q 306.76 63.92 310.29 63.24
  Q 316.03 62.14 316.54 61.78
  A 1.01 1.00 -14.8 0 0 316.95 61.08
  Q 317.22 58.66 319.03 57.50
  A 1.33 1.24 20.6 0 1 319.47 57.32
  L 331.13 55.12
  A 1.20 1.19 77.0 0 0 332.06 53.63
  Q 331.73 52.45 331.31 51.53
  C 330.67 50.12 331.27 48.42 332.75 48.14
  A 1.17 1.17 0.0 0 1 333.78 48.43
  L 334.83 49.40
  A 2.13 2.10 -20.5 0 0 336.06 49.95
  Q 340.87 50.42 343.96 49.52
  C 345.97 48.94 347.83 49.38 349.45 48.84
  A 0.43 0.42 65.8 0 0 349.68 48.22
  C 348.23 45.79 344.48 45.21 342.73 43.32
  A 1.34 1.34 0.0 0 1 344.03 41.10
  Q 346.28 41.66 347.76 42.00
  Q 350.67 42.66 351.38 40.41
  A 1.68 1.55 -61.6 0 1 353.95 39.53
  Q 354.06 39.62 355.01 40.59
  A 1.89 1.89 0.0 0 0 357.61 40.69
  Q 359.34 39.18 361.82 38.54
  A 0.30 0.30 0.0 0 0 361.88 37.99
  L 360.85 37.45
  A 3.07 3.01 63.0 0 0 359.90 37.13
  Q 358.84 37.00 350.20 35.54
  Q 345.16 34.68 340.69 33.30
  A 1.75 1.75 0.0 0 1 339.95 30.42
  Q 340.25 30.10 341.81 30.12
  Q 346.79 30.16 349.48 29.37
  A 5.32 5.01 -52.7 0 1 350.86 29.14
  Q 357.88 28.93 363.72 24.93
  A 0.50 0.49 31.5 0 0 363.50 24.03
  Q 361.53 23.78 359.82 24.29
  Q 357.01 25.12 356.14 24.73
  Q 355.93 24.64 347.49 25.68
  C 345.66 25.90 341.96 26.57 341.26 24.68
  A 1.96 1.84 -12.3 0 1 342.97 22.19
  Q 344.57 22.05 345.95 21.48
  A 4.02 4.00 -58.6 0 1 347.22 21.17
  Q 351.56 20.86 355.20 18.89
  C 356.84 18.00 358.37 18.14 359.84 16.82
  A 0.52 0.51 -78.5 0 0 359.28 15.97
  Q 357.11 16.99 350.79 18.53
  C 348.68 19.04 346.85 18.88 345.07 19.47
  C 343.03 20.15 340.38 20.09 338.09 19.65
  A 1.09 1.08 33.8 0 1 337.70 17.68
  C 340.07 16.11 342.68 16.08 344.85 14.40
  A 0.56 0.56 0.0 0 0 344.28 13.44
  L 334.64 17.53
  A 2.08 1.87 -56.2 0 1 334.13 17.66
  Q 328.44 18.34 323.41 17.53
  A 4.91 4.80 45.6 0 0 321.99 17.50
  C 316.03 18.19 311.79 18.92 306.63 18.90
  Q 291.94 18.83 281.73 19.17
  A 4.58 4.27 35.7 0 0 280.79 19.29
  Q 278.76 19.79 277.77 19.83
  Q 261.27 20.52 247.53 28.21
  A 7.32 6.65 19.7 0 1 246.11 28.80
  C 241.17 30.21 237.15 32.54 232.78 34.31
  Q 224.46 37.69 223.68 37.85
  C 219.92 38.64 217.95 38.34 215.63 34.59
  Q 215.54 34.45 211.09 27.03
  Q 210.36 25.82 209.68 25.18
  C 208.26 23.86 207.88 22.14 206.40 20.99
  Q 204.45 19.47 203.80 19.34
  Q 199.87 18.55 199.29 18.31
  A 1.06 1.05 40.6 0 0 198.33 18.38
  C 196.31 19.58 191.86 16.43 190.02 15.01
  A 0.68 0.68 0.0 0 0 188.96 15.78
  L 190.51 20.14
  A 1.78 1.76 -46.3 0 1 190.53 21.27
  Q 189.54 24.59 190.50 28.07
  C 191.04 30.03 190.63 31.04 189.60 32.63
  Q 184.18 41.00 174.80 36.69
  Q 165.12 32.23 155.26 28.08
  Q 152.78 27.03 145.98 23.25
  Q 140.63 20.28 130.03 18.90
  Q 127.11 18.52 126.91 18.47
  A 4.30 0.39 13.4 0 0 124.56 18.13
  L 86.37 17.89
  A 5.53 5.51 -38.0 0 1 85.05 17.73
  Q 82.33 17.09 76.95 16.95
  A 3.14 2.95 35.4 0 0 76.00 17.08
  Q 72.02 18.34 67.79 17.68
  Q 62.92 16.93 62.15 17.05
  Q 61.16 17.20 55.03 15.98
  Q 45.85 14.14 37.74 10.11
  A 0.35 0.34 -11.5 0 0 37.36 10.68
  Q 39.71 12.66 42.76 13.73
  Q 46.69 15.12 54.97 17.41
  A 0.90 0.89 -67.5 0 1 55.51 18.72
  C 53.94 21.45 47.21 18.68 45.23 18.86
  Q 42.91 19.08 41.21 18.55
  Q 39.90 18.14 34.53 17.23
  C 29.21 16.32 22.60 13.93 18.28 11.78
  A 0.25 0.25 0.0 0 0 17.95 12.11
  Q 18.92 14.01 21.18 15.10
  Q 27.41 18.08 37.23 20.53
  C 40.20 21.27 43.05 20.92 46.29 22.21
  Q 47.65 22.75 47.77 23.38
  A 1.02 0.99 -7.2 0 1 46.84 24.54
  Q 40.36 25.07 31.84 24.90
  A 4.74 4.74 0.0 0 1 30.74 24.73
  Q 28.19 24.01 24.51 23.88
  A 4.41 4.08 -31.7 0 1 23.28 23.64
  Q 21.36 22.93 18.52 22.92
  A 0.54 0.47 49.1 0 1 18.38 22.90
  L 11.60 21.05
  A 0.37 0.36 -9.3 0 0 11.20 21.60
  C 12.24 23.14 14.00 22.86 15.54 23.99
  C 19.64 27.00 24.34 27.61 29.73 28.43
  C 35.64 29.33 44.05 29.08 47.50 29.02
  A 2.60 2.59 14.4 0 0 49.69 27.73
  L 50.89 25.65
  A 0.74 0.74 0.0 0 1 52.14 25.59
  C 55.30 30.05 49.59 31.96 45.97 32.97
  Q 39.47 34.79 23.01 36.79
  C 20.63 37.08 18.25 36.63 15.97 37.79
  A 0.34 0.34 0.0 0 0 16.01 38.41
  C 21.94 40.72 28.67 43.07 35.15 41.47
  C 36.79 41.07 38.42 40.88 39.89 41.39
  A 1.11 1.11 0.0 0 1 40.38 43.14
  Q 40.18 43.38 39.31 43.82
  Q 35.25 45.88 29.90 47.50
  A 0.85 0.85 0.0 0 0 29.82 49.09
  C 32.69 50.28 35.38 49.81 38.41 50.57
  C 41.82 51.42 44.02 49.78 47.22 50.24
  A 1.68 1.67 11.6 0 1 48.60 52.33
  L 48.05 54.35
  A 1.05 1.04 -78.2 0 0 48.90 55.66
  L 62.65 57.67
  A 1.38 1.37 -87.7 0 1 63.82 58.95
  L 64.00 62.01
  A 1.02 1.02 0.0 0 0 65.08 62.97
  Q 69.38 62.73 72.80 63.52
  A 4.47 3.78 -0.2 0 1 75.94 66.16
  Q 76.05 66.51 77.03 66.77
  Q 83.58 68.53 90.30 70.25
  A 0.47 0.45 68.0 0 1 90.50 70.34
  L 92.24 71.52
  A 0.56 0.48 63.4 0 0 92.43 71.60
  Q 97.62 72.87 102.28 70.75
  A 1.65 1.63 89.7 0 0 103.09 69.92
  Q 103.87 68.17 105.27 67.41
  A 1.79 1.79 0.0 0 1 107.91 68.89
  L 108.11 72.24
  A 1.74 1.74 0.0 0 0 109.46 73.84
  Q 113.91 74.83 118.42 76.40
  Q 119.27 76.69 120.05 77.31
  A 2.22 2.21 -20.8 0 0 121.15 77.80
  L 132.29 79.54
  A 0.86 0.25 29.0 0 1 132.42 79.57
  L 138.74 81.55
  A 0.90 0.81 -10.1 0 1 139.11 81.78
  Q 140.83 83.68 141.80 83.75
  Q 145.79 84.05 148.90 84.30
  A 2.58 2.56 65.1 0 1 150.19 84.78
  Q 151.72 85.89 153.50 86.45
  A 2.17 2.07 44.7 0 0 154.71 86.47
  Q 157.03 85.80 157.95 86.53
  A 1.21 1.20 33.3 0 0 159.76 86.16
  L 163.67 78.88
  A 1.24 0.69 -87.6 0 1 163.78 78.70
  Q 166.29 75.21 166.08 71.65
  A 0.60 0.60 0.0 0 1 167.25 71.42
  Q 169.44 78.00 169.05 84.99
  A 1.02 1.01 -73.6 0 0 169.55 85.92
  L 173.73 88.33
  A 2.35 2.34 -74.9 0 1 174.90 90.38
  Q 174.82 95.99 176.57 101.26
  A 5.97 5.88 38.6 0 1 176.85 103.61
  Q 176.15 111.82 172.09 119.70
  A 0.22 0.22 0.0 0 0 172.30 120.02
  L 187.31 119.14
  A 0.58 0.58 0.0 0 0 187.86 118.58
  L 188.13 107.67
  A 1.71 1.55 60.6 0 1 188.27 107.05
  Q 190.55 102.12 191.08 101.05
  Q 192.64 97.93 193.69 93.62
  C 194.40 90.73 195.16 87.66 195.16 84.09
  Q 195.16 80.95 195.16 74.49
  Q 195.16 74.18 195.67 74.10
  A 0.37 0.37 0.0 0 1 196.10 74.50
  Q 195.99 75.64 196.79 75.88
  A 1.72 1.70 -86.0 0 1 197.99 77.27
  Q 198.90 83.20 200.23 87.47
  C 201.04 90.06 201.37 94.10 203.06 96.66
  C 204.13 98.28 203.78 100.41 205.43 101.80
  A 0.56 0.55 40.3 0 0 206.22 101.74"
/>
<path stroke="#807700" vector-effect="non-scaling-stroke" d="
  M 33.60 205.70
  Q 34.15 205.09 38.18 198.67
  Q 45.55 186.95 59.24 174.23
  C 62.47 171.24 66.31 171.47 70.75 171.45
  Q 101.69 171.36 142.19 171.55
  A 0.75 0.75 0.0 0 0 142.94 170.66
  Q 139.50 152.96 138.46 135.49
  C 137.81 124.64 155.74 121.93 163.23 121.08
  A 0.78 0.77 -2.2 0 0 163.91 120.35
  C 164.03 117.85 163.70 115.52 164.34 113.06
  Q 165.69 107.86 167.46 103.78
  A 4.06 3.91 62.3 0 0 167.74 102.82
  Q 168.15 100.21 168.29 99.80
  C 169.54 96.08 169.10 90.90 168.23 87.51
  A 3.89 3.57 -55.1 0 1 168.12 86.69
  L 167.94 78.88
  A 4.38 4.25 37.0 0 0 167.76 77.72
  L 166.93 74.85
  A 0.27 0.27 0.0 0 0 166.41 74.88
  Q 165.91 77.49 165.08 78.51
  A 6.18 6.07 75.8 0 0 164.17 80.07
  Q 161.93 85.62 160.92 86.93
  Q 158.54 89.99 157.53 91.82
  A 3.90 3.62 -10.4 0 1 156.94 92.61
  Q 153.66 96.01 144.50 106.51
  Q 143.60 107.55 142.71 108.22
  C 141.55 109.09 141.52 110.21 139.94 110.83
  A 1.41 1.37 0.8 0 0 139.18 111.55
  Q 137.93 114.27 134.87 116.08
  A 4.69 4.62 2.7 0 0 133.53 117.28
  Q 129.50 122.58 127.82 125.82
  Q 126.62 128.15 123.66 136.82
  A 6.73 6.17 -39.6 0 1 123.30 137.68
  Q 121.77 140.73 121.51 142.78
  Q 120.74 148.83 119.79 156.15
  A 1.36 1.25 17.0 0 1 117.89 157.06
  Q 117.00 156.64 116.69 155.54
  Q 115.24 150.32 114.46 148.32
  A 6.57 6.33 34.7 0 1 114.03 146.18
  Q 113.83 139.10 114.09 138.00
  Q 115.00 134.12 115.23 129.79
  Q 115.24 129.71 116.92 125.28
  A 0.19 0.19 0.0 0 0 116.64 125.06
  Q 114.44 126.49 113.94 127.98
  Q 112.10 133.41 107.95 140.22
  Q 107.04 141.73 105.89 143.72
  A 4.89 4.76 -10.5 0 1 105.41 144.40
  Q 101.49 149.00 99.31 152.97
  Q 97.04 157.11 93.28 159.92
  A 0.73 0.73 0.0 0 1 92.15 159.10
  L 94.83 151.15
  A 6.69 6.59 54.6 0 0 95.17 149.05
  L 95.17 146.75
  A 0.88 0.87 72.4 0 1 95.53 146.04
  Q 95.88 145.78 95.88 145.58
  Q 95.91 144.70 95.27 145.28
  Q 95.04 145.48 94.89 146.32
  A 2.24 2.20 71.0 0 1 94.41 147.33
  L 83.30 160.53
  A 3.21 2.95 81.3 0 0 82.95 161.05
  L 81.61 163.69
  A 0.38 0.38 0.0 0 1 80.89 163.50
  L 81.04 160.39
  A 2.46 2.27 -52.9 0 0 80.97 159.67
  Q 79.59 154.13 79.13 152.71
  C 78.19 149.81 76.89 147.98 74.50 146.63
  A 3.25 3.20 89.7 0 1 73.24 145.36
  L 70.97 141.22
  A 0.35 0.35 0.0 0 0 70.33 141.51
  Q 70.38 141.69 70.66 142.11
  A 1.91 1.87 26.7 0 1 70.96 142.98
  Q 71.57 150.29 68.57 156.90
  A 5.75 5.63 -28.8 0 0 68.15 158.29
  Q 67.84 160.13 67.17 161.65
  A 0.50 0.50 0.0 0 1 66.60 161.94
  L 66.57 161.94
  A 0.70 0.70 0.0 0 1 66.02 161.19
  Q 66.50 156.44 64.45 152.03
  Q 62.75 148.36 62.30 147.05
  A 7.17 6.54 -60.8 0 1 62.00 145.77
  Q 60.85 136.83 58.96 129.91
  Q 58.33 127.60 57.31 122.54
  Q 56.64 119.24 55.12 115.32
  A 0.51 0.51 0.0 0 0 54.13 115.50
  Q 53.99 124.90 51.04 132.46
  A 7.74 7.34 -18.0 0 1 50.15 134.10
  Q 46.51 139.05 44.98 142.27
  Q 41.72 149.10 39.53 152.58
  A 8.00 7.72 -8.4 0 1 38.53 153.88
  Q 32.73 160.11 31.37 163.61
  Q 27.65 173.21 27.38 173.77
  A 5.30 5.21 57.8 0 0 26.87 176.12
  L 27.04 185.29
  A 2.83 2.66 -59.1 0 0 27.27 186.35
  L 32.86 199.02
  A 1.81 1.75 -58.1 0 1 33.02 199.76
  L 33.02 205.47
  A 0.34 0.33 66.4 0 0 33.60 205.70"
/>
<path stroke="#807700" vector-effect="non-scaling-stroke" d="
  M 196.32 77.13
  A 0.35 0.35 0.0 0 0 195.95 77.51
  Q 196.88 88.59 193.45 97.77
  Q 192.63 99.97 190.50 104.75
  Q 190.45 104.85 189.88 105.73
  Q 189.12 106.92 189.06 109.27
  Q 188.82 118.65 188.81 118.67
  A 0.24 0.24 0.0 0 0 189.03 118.97
  L 212.47 120.30
  A 0.41 0.40 -83.6 0 0 212.89 119.96
  C 213.54 116.08 210.11 110.95 207.83 108.23
  A 8.87 8.42 -79.9 0 1 206.72 106.55
  Q 206.18 105.47 203.31 100.04
  Q 200.94 95.54 200.30 92.03
  C 199.25 86.37 197.64 82.45 196.84 77.34
  A 0.23 0.23 0.0 0 0 196.63 77.15
  L 196.32 77.13"
/>
<path stroke="#803c00" vector-effect="non-scaling-stroke" d="
  M 240.46 90.18
  C 239.98 90.90 239.84 91.72 239.04 92.44
  Q 236.03 95.17 234.65 97.29
  A 1.10 1.10 0.0 0 1 233.83 97.79
  Q 228.42 98.29 223.38 101.27
  A 0.43 0.42 -40.5 0 0 223.32 101.96
  L 234.56 111.42
  A 2.39 2.37 7.5 0 1 235.17 112.21
  L 238.85 119.86
  A 0.80 0.76 33.5 0 1 238.94 120.26
  Q 238.91 124.78 240.88 128.89
  A 1.35 1.32 -59.5 0 1 241.01 129.42
  L 241.08 131.35
  A 0.41 0.40 5.6 0 0 241.40 131.73
  L 241.43 131.73
  A 0.32 0.32 0.0 0 0 241.77 131.45
  Q 242.35 127.03 243.78 124.98
  C 245.99 121.80 246.97 117.38 248.02 114.75
  A 2.08 2.02 -36.8 0 0 248.17 113.80
  Q 248.00 111.90 248.17 110.39
  Q 248.19 110.25 248.31 110.13
  Q 248.48 109.97 248.73 110.03
  A 0.32 0.32 0.0 0 1 248.97 110.33
  Q 249.30 116.88 254.68 120.29
  A 2.56 2.40 87.4 0 1 255.36 120.95
  L 257.65 124.18
  A 0.63 0.58 -87.8 0 0 257.77 124.32
  Q 261.83 128.06 262.54 129.21
  Q 265.62 134.12 267.29 136.85
  A 8.64 8.54 22.3 0 1 268.27 139.15
  Q 270.40 147.00 269.97 155.52
  A 0.39 0.39 0.0 0 0 270.56 155.87
  Q 272.07 154.98 272.65 153.35
  Q 273.60 150.72 273.96 150.55
  Q 274.11 150.49 276.09 146.94
  A 9.48 9.43 -8.8 0 1 277.43 145.12
  Q 283.93 138.27 290.60 133.99
  A 0.40 0.40 0.0 0 0 290.57 133.30
  C 286.70 131.25 284.36 127.07 282.11 123.52
  A 0.55 0.55 0.0 0 0 281.31 123.38
  Q 273.39 129.59 267.53 122.33
  A 3.60 2.92 18.5 0 1 267.13 121.70
  Q 266.04 119.40 264.95 118.21
  A 3.16 3.04 -77.6 0 1 264.35 117.23
  Q 262.11 111.29 262.08 110.39
  Q 261.97 107.77 260.44 103.63
  Q 259.26 100.43 260.83 93.25
  A 2.33 1.94 -64.8 0 0 260.87 92.93
  L 261.13 86.83
  A 4.92 4.89 60.1 0 1 261.67 84.81
  L 262.94 82.36
  A 0.93 0.93 0.0 0 0 262.07 81.00
  L 261.89 81.00
  A 1.80 1.78 5.9 0 0 260.27 82.30
  Q 259.37 85.53 258.39 87.15
  C 255.84 91.38 254.02 94.22 252.65 98.47
  Q 251.43 102.28 249.74 105.69
  A 0.44 0.44 0.0 0 1 249.00 105.76
  Q 244.66 100.17 243.01 93.19
  Q 242.92 92.81 241.11 90.18
  A 0.39 0.39 0.0 0 0 240.46 90.18"
/>
<path stroke="#803c00" vector-effect="non-scaling-stroke" d="
  M 173.34 91.89
  C 172.13 93.27 172.03 94.23 171.75 95.94
  A 1.96 1.94 74.3 0 1 171.09 97.13
  C 168.71 99.18 169.19 102.26 168.29 104.80
  Q 165.69 112.12 165.35 113.18
  A 5.34 5.03 57.3 0 0 165.11 114.46
  L 164.79 120.23
  A 0.58 0.58 0.0 0 0 165.46 120.83
  L 169.53 120.24
  A 3.71 3.69 -86.5 0 0 172.56 117.55
  L 175.64 106.22
  A 4.21 4.17 -41.6 0 0 175.75 104.48
  L 173.93 92.07
  A 0.34 0.34 0.0 0 0 173.34 91.89"
/>
<path stroke="#807700" vector-effect="non-scaling-stroke" d="
  M 212.83 93.93
  Q 212.49 98.80 215.38 102.95
  A 3.81 3.35 -76.9 0 1 215.75 103.64
  L 217.62 108.45
  A 3.45 3.43 -60.8 0 1 217.81 109.13
  Q 218.59 113.55 216.85 120.52
  A 0.66 0.66 0.0 0 0 217.40 121.33
  C 225.30 122.42 235.10 124.09 239.80 130.84
  A 0.19 0.19 0.0 0 0 240.13 130.66
  Q 238.50 126.93 238.12 123.61
  C 237.68 119.64 236.10 114.91 234.15 112.76
  Q 229.68 107.81 221.28 101.85
  Q 214.87 97.31 214.66 97.09
  A 2.06 2.04 -76.4 0 1 214.15 96.24
  L 213.43 93.87
  A 0.31 0.30 39.0 0 0 212.83 93.93"
/>
<path stroke="#803c00" vector-effect="non-scaling-stroke" d="
  M 211.93 95.04
  A 0.23 0.22 -30.2 0 0 211.51 94.93
  C 210.76 96.22 209.50 100.07 207.84 101.03
  A 2.27 2.13 64.4 0 0 206.98 103.76
  Q 207.92 106.14 210.15 109.28
  Q 213.91 114.57 214.06 120.23
  A 0.85 0.84 51.4 0 0 215.72 120.42
  L 217.02 115.27
  A 2.21 1.58 62.2 0 0 217.06 114.98
  Q 217.13 108.26 214.22 103.09
  Q 212.02 99.16 211.93 95.04"
/>
<path stroke="#803c00" vector-effect="non-scaling-stroke" d="
  M 140.36 109.89
  Q 140.55 109.78 140.70 109.54
  A 0.21 0.21 0.0 0 0 140.46 109.23
  Q 140.11 109.34 140.00 109.49
  A 0.28 0.27 3.1 0 0 140.36 109.89"
/>
<path stroke="#803c00" vector-effect="non-scaling-stroke" d="
  M 97.28 117.63
  C 97.51 119.90 93.08 123.14 91.10 124.84
  C 87.63 127.80 81.53 124.93 77.84 123.93
  Q 77.03 123.71 71.83 122.49
  A 0.88 0.87 28.4 0 0 71.01 122.73
  Q 67.05 126.89 64.75 132.53
  C 64.25 133.75 63.40 134.85 62.39 136.01
  A 1.70 1.69 65.0 0 0 61.97 137.18
  L 62.03 139.70
  A 4.33 3.82 41.4 0 0 62.13 140.50
  L 63.27 145.55
  A 4.42 2.78 61.5 0 0 63.44 146.13
  L 67.16 156.60
  A 0.20 0.20 0.0 0 0 67.52 156.65
  C 68.97 154.68 68.89 153.40 69.63 150.64
  Q 70.81 146.23 69.23 140.74
  Q 68.99 139.90 69.04 139.79
  A 1.22 1.22 0.0 0 1 71.26 139.70
  L 73.85 144.79
  A 2.36 2.34 3.2 0 0 74.69 145.72
  Q 80.04 149.07 80.86 155.14
  Q 81.25 158.04 81.84 158.84
  A 0.52 0.51 50.7 0 0 82.60 158.92
  Q 85.89 155.95 87.48 153.67
  Q 88.45 152.26 91.23 149.55
  Q 93.41 147.42 94.55 145.05
  Q 94.98 144.16 96.12 143.97
  A 0.64 0.64 0.0 0 1 96.86 144.68
  Q 96.00 151.51 93.81 156.53
  A 0.34 0.34 0.0 0 0 94.29 156.96
  Q 96.54 155.61 97.87 153.14
  Q 100.79 147.76 104.12 143.85
  Q 105.62 142.09 110.02 134.45
  C 111.40 132.05 111.94 129.35 112.86 127.13
  A 5.26 5.26 0.0 0 1 116.29 124.09
  L 117.25 123.82
  A 0.94 0.94 0.0 0 1 118.34 125.15
  Q 116.33 129.13 116.10 131.35
  Q 115.75 134.72 115.11 137.56
  Q 114.64 139.63 115.19 147.06
  Q 115.24 147.81 116.28 149.77
  A 4.93 4.89 -62.7 0 1 116.84 151.54
  Q 117.10 153.67 118.06 155.53
  A 0.53 0.52 -60.0 0 0 119.05 155.26
  Q 118.90 152.28 119.33 150.57
  Q 120.00 147.95 119.98 145.93
  Q 119.97 143.71 121.19 139.22
  C 121.52 138.04 122.33 137.41 122.61 136.32
  Q 122.91 135.19 123.21 134.46
  Q 125.30 129.49 126.40 126.29
  A 1.00 0.66 -33.7 0 1 126.45 126.17
  L 129.67 120.04
  A 5.29 5.25 -6.6 0 1 130.87 118.54
  L 137.91 112.52
  A 1.00 1.00 0.0 0 0 136.86 110.85
  L 128.37 114.60
  A 0.78 0.76 36.2 0 1 127.95 114.66
  Q 124.27 114.17 122.44 112.09
  A 0.60 0.60 0.0 0 0 121.60 112.03
  Q 120.16 113.25 116.04 115.73
  Q 114.24 116.81 109.74 121.81
  A 3.38 3.16 -81.6 0 1 108.95 122.44
  Q 104.28 125.10 100.73 125.84
  C 98.48 126.31 97.97 124.65 97.99 122.72
  Q 98.04 117.23 98.03 117.22
  A 0.46 0.46 0.0 0 0 97.28 117.63"
/>
<path stroke="#807700" vector-effect="non-scaling-stroke" d="
  M 248.65 115.53
  L 247.06 121.36
  A 4.84 4.65 71.3 0 1 246.37 122.83
  Q 243.19 127.35 242.74 131.66
  A 2.94 2.90 -22.2 0 1 242.05 133.27
  L 240.84 134.72
  A 0.70 0.67 -22.7 0 0 240.67 135.11
  Q 239.05 153.76 236.09 170.54
  A 0.76 0.76 0.0 0 0 236.77 171.43
  Q 238.03 171.53 238.52 171.53
  Q 259.17 171.40 311.25 171.43
  C 317.50 171.43 319.38 173.72 324.04 178.28
  Q 337.83 191.79 347.28 209.32
  A 0.34 0.34 0.0 0 0 347.92 209.19
  Q 348.39 203.72 346.16 198.83
  Q 341.89 189.45 339.28 183.90
  A 3.42 3.29 -63.9 0 1 339.01 183.06
  Q 338.47 180.32 336.92 178.03
  Q 334.20 174.01 331.78 167.44
  C 330.72 164.54 331.26 161.20 329.04 158.53
  A 3.20 3.15 -69.5 0 1 328.33 156.94
  L 327.73 152.82
  A 2.34 2.27 -62.6 0 0 327.54 152.19
  Q 324.32 145.31 324.22 144.00
  Q 323.79 138.20 322.38 130.41
  Q 321.86 127.56 322.04 124.56
  A 0.46 0.46 0.0 0 0 321.30 124.16
  C 319.42 125.54 318.90 129.22 318.65 131.41
  Q 318.39 133.72 316.68 136.95
  A 9.26 9.14 67.5 0 0 315.95 138.75
  Q 314.67 143.19 312.65 146.15
  A 3.74 3.69 69.2 0 0 312.09 147.42
  Q 311.33 150.64 310.88 151.38
  Q 306.64 158.53 306.57 158.77
  A 9.77 9.56 56.9 0 0 306.12 161.03
  L 305.69 166.81
  A 0.99 0.99 0.0 0 1 303.89 167.31
  Q 298.53 159.78 299.09 152.84
  A 1.77 1.74 38.2 0 0 298.99 152.06
  L 298.05 149.42
  A 0.49 0.49 0.0 0 0 297.12 149.45
  L 294.30 159.07
  A 0.93 0.93 0.0 0 1 292.62 159.29
  Q 292.21 158.63 292.14 157.18
  Q 291.74 149.13 292.09 143.28
  A 8.08 8.05 64.5 0 1 293.55 139.12
  C 295.08 136.95 297.47 133.16 297.11 130.56
  A 0.98 0.98 0.0 0 0 295.28 130.24
  Q 295.01 130.75 292.97 133.46
  Q 292.13 134.56 289.95 135.96
  Q 283.98 139.77 278.02 146.27
  Q 276.47 147.96 276.07 149.32
  C 275.62 150.86 274.19 150.98 274.11 152.71
  Q 274.06 153.79 272.89 155.04
  Q 270.85 157.21 269.05 160.55
  A 1.10 1.09 9.8 0 1 268.24 161.12
  L 267.81 161.18
  A 0.52 0.52 0.0 0 1 267.26 160.45
  Q 269.68 155.17 269.01 149.49
  Q 268.29 143.37 267.30 139.24
  A 6.08 6.04 -68.0 0 0 266.56 137.48
  L 261.76 129.77
  A 9.10 8.85 -85.8 0 0 260.13 127.83
  Q 257.05 125.09 254.92 122.05
  A 3.62 3.62 0.0 0 0 254.05 121.18
  Q 250.68 118.82 249.14 115.49
  A 0.26 0.26 0.0 0 0 248.65 115.53"
/>
<path stroke="#803c00" vector-effect="non-scaling-stroke" d="
  M 293.45 157.56
  L 296.76 148.83
  A 0.78 0.77 27.7 0 1 297.93 148.47
  C 299.50 149.57 299.92 150.79 299.94 152.90
  Q 300.01 157.73 301.14 160.19
  Q 302.91 164.01 304.11 166.58
  A 0.45 0.45 0.0 0 0 304.96 166.44
  C 305.15 164.61 304.33 159.62 305.79 157.76
  C 307.35 155.74 308.40 153.30 309.66 150.60
  C 310.73 148.29 308.17 145.61 307.21 144.05
  A 18.94 18.77 23.8 0 1 304.82 137.98
  C 304.35 135.72 303.96 134.07 303.96 131.63
  Q 303.99 119.87 303.95 117.99
  A 0.25 0.25 0.0 0 0 303.45 117.94
  Q 302.86 120.79 301.09 122.48
  C 299.92 123.60 300.15 124.93 299.11 125.86
  C 297.51 127.27 297.74 129.70 297.90 132.10
  A 3.11 3.02 -36.0 0 1 297.65 133.53
  Q 296.12 136.94 295.26 138.14
  C 293.27 140.92 293.07 142.03 292.93 146.00
  Q 292.70 152.54 293.15 157.52
  A 0.16 0.15 -37.3 0 0 293.45 157.56"
/>
</g>
<path fill="#000000" d="
  M 221.67 283.21
  A 0.30 0.29 -9.7 0 0 222.10 283.51
  C 248.59 269.94 277.00 253.55 305.20 241.70
  C 324.17 233.73 344.86 230.30 358.84 249.12
  Q 367.37 260.59 369.38 273.57
  C 370.92 283.54 371.96 287.23 372.24 294.01
  C 372.38 297.27 372.88 300.49 372.59 303.38
  C 371.93 309.78 372.16 317.21 371.21 324.87
  C 366.31 364.78 348.18 399.82 320.72 428.97
  Q 313.76 436.36 310.55 438.76
  C 305.19 442.78 298.66 443.21 292.16 442.83
  C 284.04 442.35 278.03 438.72 271.92 433.11
  Q 240.32 404.07 224.48 389.80
  Q 224.01 389.38 223.98 389.33
  A 0.25 0.25 0.0 0 1 224.26 388.99
  Q 237.89 391.61 246.70 393.09
  C 255.50 394.58 259.01 392.23 260.23 383.36
  Q 264.83 349.99 268.79 321.37
  A 0.39 0.38 -4.1 0 0 268.30 320.95
  Q 257.82 323.97 242.01 327.98
  C 232.56 330.37 221.88 335.07 215.25 342.73
  C 210.69 348.00 210.90 353.58 210.93 362.10
  Q 210.96 372.03 210.95 375.64
  A 0.58 0.58 0.0 0 1 210.37 376.21
  L 168.23 376.21
  A 0.56 0.56 0.0 0 1 167.67 375.63
  Q 167.77 373.15 168.12 357.75
  Q 168.28 350.45 165.86 346.09
  C 159.76 335.08 145.01 329.92 132.78 326.95
  Q 123.39 324.68 110.36 320.87
  A 0.19 0.19 0.0 0 0 110.12 321.08
  Q 112.32 336.78 118.70 383.26
  C 119.60 389.80 121.97 394.64 129.77 393.44
  Q 140.62 391.78 154.60 389.06
  A 0.30 0.30 0.0 0 1 154.86 389.58
  Q 132.63 409.49 106.06 434.09
  Q 94.87 444.45 79.25 442.74
  Q 71.42 441.89 66.38 437.13
  C 34.84 407.35 13.44 369.05 7.87 325.72
  C 6.81 317.52 6.94 309.09 6.27 301.76
  Q 6.27 301.66 6.91 292.29
  C 7.32 286.34 8.58 280.28 9.54 273.52
  Q 11.36 260.81 20.75 248.45
  C 30.59 235.47 45.26 232.88 60.74 237.29
  Q 68.69 239.56 78.16 243.59
  Q 92.01 249.47 104.47 256.02
  Q 132.63 270.83 156.81 283.59
  A 0.32 0.32 0.0 0 0 157.28 283.26
  L 148.57 223.63
  A 0.31 0.31 0.0 0 0 148.28 223.37
  Q 38.86 218.70 35.00 218.55
  Q 31.93 218.42 29.35 217.90
  A 1.62 1.62 0.0 0 1 28.24 215.58
  L 31.11 210.02
  A 1.28 1.22 57.8 0 0 31.25 209.33
  Q 31.16 208.26 31.84 205.74
  Q 32.26 204.17 31.73 200.15
  A 5.03 4.95 29.2 0 0 31.31 198.71
  Q 27.16 189.81 26.43 186.61
  Q 25.41 182.14 26.08 174.60
  A 1.87 1.73 -34.6 0 1 26.19 174.11
  L 30.72 162.17
  A 2.54 2.14 77.0 0 1 30.94 161.74
  L 33.68 157.70
  A 0.17 0.11 -83.4 0 1 33.73 157.64
  Q 38.58 153.05 40.68 148.68
  Q 44.98 139.78 47.22 136.30
  Q 50.50 131.21 51.43 127.75
  Q 52.97 122.02 53.08 118.33
  C 53.15 115.70 54.62 113.56 53.17 111.04
  A 0.57 0.57 0.0 0 1 53.43 110.23
  L 53.71 110.11
  A 0.30 0.29 -22.5 0 1 54.11 110.27
  Q 58.30 120.58 58.64 122.90
  Q 59.33 127.63 60.69 131.83
  C 61.06 132.97 60.84 134.55 61.13 135.27
  A 0.36 0.36 0.0 0 0 61.75 135.35
  Q 63.78 132.72 64.43 130.21
  C 64.65 129.35 65.99 126.58 67.17 125.72
  C 67.97 125.14 67.79 124.01 68.61 123.40
  Q 69.84 122.47 70.35 121.49
  A 0.80 0.79 18.9 0 1 71.19 121.08
  C 76.11 121.94 81.22 123.95 84.25 124.76
  C 90.89 126.54 96.61 118.47 98.20 113.31
  A 0.39 0.39 0.0 0 1 98.97 113.42
  L 98.97 123.63
  A 1.45 1.45 0.0 0 0 101.01 124.96
  L 108.07 121.85
  A 3.05 2.97 -82.9 0 0 109.21 120.94
  Q 112.75 116.24 119.50 112.12
  A 1.07 0.99 2.4 0 0 119.63 112.01
  L 122.20 109.29
  A 0.34 0.34 0.0 0 1 122.79 109.51
  C 122.87 113.78 127.79 114.11 130.67 112.64
  Q 135.92 109.97 137.57 109.73
  A 1.51 1.45 15.1 0 0 138.50 109.22
  Q 139.89 107.57 142.09 106.80
  A 2.57 2.48 8.4 0 0 143.28 105.95
  Q 145.19 103.45 147.65 101.52
  A 0.28 0.10 -19.3 0 0 147.70 101.48
  L 156.82 91.27
  A 0.03 0.02 -31.7 0 0 156.83 91.25
  L 158.12 88.48
  A 0.97 0.97 0.0 0 0 156.98 87.14
  Q 153.15 88.20 150.31 85.98
  A 3.54 3.48 -20.2 0 0 148.85 85.32
  C 146.30 84.83 141.48 85.64 138.78 82.74
  A 0.67 0.61 74.7 0 0 138.50 82.56
  L 132.00 80.38
  A 1.14 0.92 51.0 0 0 131.72 80.32
  Q 122.42 79.27 121.01 78.60
  Q 115.80 76.08 109.93 75.09
  C 106.90 74.57 106.99 71.37 106.94 69.04
  A 1.06 1.05 59.4 0 0 104.97 68.53
  L 103.67 70.78
  A 2.09 2.01 -86.8 0 1 102.79 71.60
  Q 98.68 73.56 93.56 72.73
  C 91.75 72.43 90.07 71.00 88.11 70.64
  Q 84.06 69.90 76.69 67.55
  A 2.54 2.52 -9.8 0 1 75.46 66.69
  C 74.42 65.35 73.91 64.70 72.33 64.36
  Q 69.52 63.76 65.03 63.82
  A 1.66 1.65 85.4 0 1 63.37 62.40
  L 62.88 59.04
  A 0.55 0.55 0.0 0 0 62.42 58.58
  L 48.06 56.48
  A 0.74 0.72 77.8 0 1 47.55 56.14
  Q 46.55 54.45 47.75 52.72
  A 1.15 1.14 -76.7 0 0 46.65 50.93
  L 41.71 51.65
  A 8.48 8.40 -45.3 0 1 39.47 51.67
  L 31.90 50.73
  A 1.64 1.20 -27.2 0 1 31.65 50.69
  L 28.51 49.82
  A 0.70 0.70 0.0 0 1 28.05 48.89
  Q 28.89 46.81 30.37 46.40
  Q 35.56 44.96 39.34 42.80
  A 0.60 0.60 0.0 0 0 38.88 41.71
  Q 29.67 44.31 20.78 41.11
  C 18.38 40.24 16.35 39.96 14.25 37.87
  A 0.39 0.38 57.9 0 1 14.39 37.24
  Q 16.79 36.37 20.49 36.02
  Q 33.89 34.73 46.72 31.97
  Q 48.10 31.68 51.36 29.76
  A 1.25 1.23 82.5 0 0 51.94 28.99
  Q 52.33 27.44 51.91 26.30
  A 0.37 0.36 40.9 0 0 51.21 26.35
  Q 50.55 29.58 46.87 29.86
  Q 46.68 29.88 35.30 29.92
  Q 32.22 29.93 30.05 29.51
  C 26.72 28.85 21.10 28.42 17.90 26.47
  Q 13.45 23.77 12.48 23.55
  A 1.77 1.77 0.0 0 1 11.58 23.08
  L 9.17 20.74
  A 0.40 0.40 0.0 0 1 9.42 20.05
  C 12.01 19.83 15.43 21.28 17.93 21.69
  Q 28.53 23.41 30.19 23.59
  Q 37.82 24.45 46.69 23.91
  A 0.33 0.33 0.0 0 0 46.79 23.28
  Q 44.39 22.35 41.79 22.14
  C 37.22 21.78 33.88 20.78 29.35 19.30
  C 23.42 17.36 18.81 16.07 16.23 10.72
  A 0.50 0.50 0.0 0 1 16.92 10.06
  Q 24.17 14.00 32.31 15.69
  Q 35.07 16.26 40.27 17.36
  C 43.63 18.08 47.98 18.10 51.06 18.85
  Q 52.73 19.26 54.62 18.83
  A 0.38 0.38 0.0 0 0 54.62 18.09
  Q 52.09 17.55 47.04 16.16
  Q 37.44 13.53 30.18 6.10
  A 0.49 0.49 0.0 0 1 30.77 5.32
  C 39.73 10.25 48.90 14.43 58.58 15.62
  Q 64.09 16.29 69.00 16.87
  Q 71.91 17.21 74.80 16.72
  A 0.30 0.30 0.0 0 0 74.83 16.14
  Q 72.67 15.53 72.54 15.51
  Q 69.22 15.00 61.79 12.38
  Q 59.25 11.48 57.09 9.71
  A 0.19 0.19 0.0 0 1 57.28 9.39
  Q 66.34 13.04 76.33 15.35
  Q 82.27 16.72 93.76 17.02
  C 106.82 17.37 126.26 15.53 141.25 20.24
  Q 144.52 21.26 150.04 24.42
  Q 152.99 26.11 158.84 28.55
  Q 166.57 31.76 174.77 35.73
  Q 176.25 36.45 179.54 37.01
  C 184.06 37.78 188.25 34.44 189.73 30.47
  A 2.27 2.22 -43.1 0 0 189.79 29.10
  Q 188.69 25.05 189.51 21.44
  A 2.67 2.67 0.0 0 0 189.51 20.32
  Q 188.78 16.81 186.97 14.03
  A 0.44 0.44 0.0 0 1 187.46 13.37
  Q 190.98 14.42 194.50 16.77
  Q 196.18 17.89 197.76 17.59
  A 1.07 0.02 -10.8 0 1 198.73 17.42
  Q 205.07 17.90 207.75 21.27
  Q 212.89 27.74 217.04 35.23
  A 3.77 3.77 0.0 0 0 219.85 37.15
  Q 222.20 37.47 224.38 36.61
  C 228.70 34.89 233.82 33.08 237.21 31.36
  C 241.80 29.03 246.03 27.95 250.98 25.45
  Q 260.64 20.55 271.82 19.38
  Q 277.26 18.82 279.10 18.63
  C 288.24 17.68 298.38 18.08 305.40 17.93
  C 311.12 17.80 316.73 17.11 322.04 16.59
  A 6.04 5.91 45.6 0 1 323.46 16.62
  Q 327.02 17.15 332.44 16.60
  Q 334.54 16.39 341.37 13.75
  Q 345.85 12.01 350.41 11.15
  A 0.43 0.43 0.0 0 1 350.70 11.94
  Q 346.23 14.51 344.26 15.82
  C 342.52 16.97 340.11 17.16 338.22 18.10
  A 0.49 0.49 0.0 0 0 338.38 19.03
  Q 339.77 19.20 341.74 19.00
  Q 351.82 17.97 361.40 14.40
  A 0.52 0.52 0.0 0 1 362.03 15.15
  L 360.91 17.09
  A 2.22 2.18 -87.3 0 1 359.97 17.96
  Q 351.87 21.84 343.12 23.06
  Q 342.25 23.18 342.02 23.58
  A 1.02 0.91 16.8 0 0 342.87 24.97
  C 346.32 25.31 349.92 24.13 353.07 24.05
  Q 359.72 23.87 367.11 22.00
  A 0.53 0.53 0.0 0 1 367.60 22.91
  C 359.79 30.15 352.43 30.29 340.50 31.17
  A 0.37 0.37 0.0 0 0 340.19 31.69
  Q 340.56 32.48 341.38 32.67
  Q 348.92 34.41 359.97 36.17
  A 0.95 0.76 51.4 0 1 360.19 36.22
  L 363.54 37.31
  A 0.73 0.73 0.0 0 1 363.60 38.67
  Q 360.14 40.14 357.22 41.66
  Q 354.43 43.12 353.61 40.36
  A 0.71 0.71 0.0 0 0 352.23 40.45
  Q 351.50 44.71 343.76 41.90
  A 0.47 0.46 -80.3 0 0 343.14 42.34
  L 343.14 42.62
  A 0.31 0.30 16.0 0 0 343.29 42.88
  L 349.71 46.58
  A 0.84 0.82 3.7 0 1 350.07 46.98
  L 350.60 48.19
  A 0.99 0.99 0.0 0 1 349.88 49.57
  Q 342.26 51.03 335.74 50.98
  Q 334.14 50.96 333.58 49.45
  A 0.68 0.67 -26.6 0 0 332.57 49.12
  L 332.54 49.14
  A 1.13 1.13 0.0 0 0 332.08 50.43
  C 332.79 52.65 334.11 55.37 330.59 56.10
  Q 324.98 57.28 319.66 58.32
  A 1.87 1.86 -2.9 0 0 318.16 59.97
  Q 317.90 62.85 314.28 63.35
  Q 307.78 64.24 303.71 67.70
  A 4.27 4.19 -70.7 0 1 301.82 68.63
  Q 297.14 69.60 293.57 71.09
  Q 287.05 73.81 283.87 74.74
  A 3.99 3.96 38.9 0 1 282.42 74.89
  Q 281.78 74.84 278.96 73.57
  C 275.47 72.01 271.83 75.25 268.62 76.06
  Q 266.22 76.66 263.16 78.49
  A 1.21 1.20 -48.0 0 1 262.03 78.55
  Q 262.02 78.54 261.92 78.48
  A 1.17 1.15 48.3 0 0 260.77 78.40
  Q 254.58 81.44 246.96 82.21
  A 7.01 6.91 -57.9 0 0 245.06 82.66
  Q 241.10 84.17 239.38 84.42
  Q 232.63 85.37 226.90 87.37
  A 5.07 4.77 -53.3 0 1 225.33 87.65
  Q 219.80 87.73 215.02 89.22
  A 2.18 2.17 -31.1 0 0 214.12 92.82
  Q 214.54 93.24 214.92 94.52
  C 215.74 97.31 219.31 99.42 222.07 100.51
  A 0.99 0.98 -52.7 0 0 223.02 100.38
  Q 227.15 97.30 232.77 96.90
  A 1.25 1.23 14.4 0 0 233.69 96.37
  Q 235.62 93.47 238.19 91.75
  A 2.73 2.64 89.0 0 0 239.04 90.84
  L 241.04 87.38
  A 0.42 0.42 0.0 0 1 241.82 87.59
  C 241.77 90.31 243.57 91.82 244.22 94.04
  C 245.14 97.20 246.44 100.73 248.50 103.09
  A 0.74 0.73 -55.5 0 0 249.74 102.86
  C 251.27 98.79 252.07 95.61 254.50 91.61
  Q 257.11 87.29 259.10 82.18
  A 3.09 3.08 -78.5 0 1 262.06 80.21
  L 262.13 80.21
  A 1.79 1.78 10.5 0 1 263.79 82.62
  L 262.38 86.41
  A 5.20 5.08 55.7 0 0 262.05 88.28
  C 262.13 93.23 259.77 99.89 262.24 106.03
  A 13.64 13.33 -62.0 0 1 262.94 108.42
  Q 264.11 114.32 265.11 116.16
  Q 266.68 119.09 269.13 122.54
  C 272.32 127.02 277.07 124.98 280.59 122.33
  A 1.58 1.57 -36.5 0 1 282.81 122.66
  C 285.79 126.76 287.47 129.96 291.05 132.58
  A 0.59 0.58 37.2 0 0 291.86 132.47
  Q 294.12 129.55 298.52 124.38
  Q 298.73 124.14 298.93 123.62
  Q 299.19 122.94 299.33 122.79
  C 303.92 117.99 303.75 112.88 304.21 107.43
  A 0.41 0.40 -85.5 0 1 304.63 107.06
  L 304.65 107.06
  A 0.38 0.38 0.0 0 1 305.01 107.44
  Q 304.98 117.01 304.88 126.75
  Q 304.79 135.43 306.45 140.68
  A 6.33 6.31 -70.2 0 0 307.14 142.15
  L 309.96 146.61
  A 0.41 0.41 0.0 0 0 310.63 146.63
  Q 313.08 143.35 314.34 139.46
  C 315.18 136.88 317.33 133.67 317.66 131.17
  C 318.10 127.95 318.87 124.64 321.58 123.11
  A 0.91 0.91 0.0 0 1 322.93 123.96
  Q 322.76 126.75 323.28 129.74
  Q 324.55 137.02 325.36 144.37
  Q 325.52 145.87 328.65 152.70
  A 1.68 1.56 31.5 0 1 328.76 153.09
  L 329.25 156.81
  A 2.38 2.33 -66.2 0 0 329.64 157.85
  Q 331.35 160.46 331.47 161.31
  Q 332.61 169.14 336.29 175.26
  Q 339.13 179.99 339.45 181.01
  Q 340.87 185.59 347.11 198.33
  Q 349.67 203.56 348.60 210.52
  A 1.04 1.04 0.0 0 0 348.67 211.10
  L 350.65 215.58
  A 1.68 1.68 0.0 0 1 349.45 217.90
  Q 346.65 218.47 341.75 218.67
  Q 309.61 219.95 230.69 223.34
  A 0.33 0.33 0.0 0 0 230.38 223.62
  L 221.67 283.21
  Z
  M 206.22 101.74
  Q 210.26 96.93 212.86 89.96
  A 2.93 2.92 -85.3 0 1 215.06 88.09
  L 223.35 86.50
  A 1.71 1.69 48.1 0 1 224.18 86.55
  Q 225.66 87.03 227.25 86.23
  Q 228.48 85.60 231.29 84.92
  Q 234.25 84.22 235.45 84.06
  Q 241.41 83.27 245.24 81.51
  A 4.00 3.86 -57.0 0 1 246.76 81.16
  Q 250.46 81.09 253.97 79.75
  C 255.97 78.98 258.48 79.31 260.00 77.57
  Q 260.32 77.21 261.05 77.15
  Q 261.51 77.12 261.83 77.33
  A 1.23 1.22 47.9 0 0 263.04 77.40
  Q 265.15 76.39 266.80 75.58
  C 268.33 74.84 269.76 75.26 271.33 74.10
  Q 273.49 72.50 277.07 72.13
  C 279.53 71.88 281.25 74.67 284.24 73.78
  A 1.60 0.27 -12.1 0 0 284.41 73.72
  L 287.26 72.39
  A 2.12 0.17 -9.2 0 1 288.64 72.05
  Q 290.25 71.76 291.75 70.89
  Q 295.29 68.82 301.86 67.80
  A 2.78 2.77 -70.6 0 0 303.31 67.10
  Q 306.76 63.92 310.29 63.24
  Q 316.03 62.14 316.54 61.78
  A 1.01 1.00 -14.8 0 0 316.95 61.08
  Q 317.22 58.66 319.03 57.50
  A 1.33 1.24 20.6 0 1 319.47 57.32
  L 331.13 55.12
  A 1.20 1.19 77.0 0 0 332.06 53.63
  Q 331.73 52.45 331.31 51.53
  C 330.67 50.12 331.27 48.42 332.75 48.14
  A 1.17 1.17 0.0 0 1 333.78 48.43
  L 334.83 49.40
  A 2.13 2.10 -20.5 0 0 336.06 49.95
  Q 340.87 50.42 343.96 49.52
  C 345.97 48.94 347.83 49.38 349.45 48.84
  A 0.43 0.42 65.8 0 0 349.68 48.22
  C 348.23 45.79 344.48 45.21 342.73 43.32
  A 1.34 1.34 0.0 0 1 344.03 41.10
  Q 346.28 41.66 347.76 42.00
  Q 350.67 42.66 351.38 40.41
  A 1.68 1.55 -61.6 0 1 353.95 39.53
  Q 354.06 39.62 355.01 40.59
  A 1.89 1.89 0.0 0 0 357.61 40.69
  Q 359.34 39.18 361.82 38.54
  A 0.30 0.30 0.0 0 0 361.88 37.99
  L 360.85 37.45
  A 3.07 3.01 63.0 0 0 359.90 37.13
  Q 358.84 37.00 350.20 35.54
  Q 345.16 34.68 340.69 33.30
  A 1.75 1.75 0.0 0 1 339.95 30.42
  Q 340.25 30.10 341.81 30.12
  Q 346.79 30.16 349.48 29.37
  A 5.32 5.01 -52.7 0 1 350.86 29.14
  Q 357.88 28.93 363.72 24.93
  A 0.50 0.49 31.5 0 0 363.50 24.03
  Q 361.53 23.78 359.82 24.29
  Q 357.01 25.12 356.14 24.73
  Q 355.93 24.64 347.49 25.68
  C 345.66 25.90 341.96 26.57 341.26 24.68
  A 1.96 1.84 -12.3 0 1 342.97 22.19
  Q 344.57 22.05 345.95 21.48
  A 4.02 4.00 -58.6 0 1 347.22 21.17
  Q 351.56 20.86 355.20 18.89
  C 356.84 18.00 358.37 18.14 359.84 16.82
  A 0.52 0.51 -78.5 0 0 359.28 15.97
  Q 357.11 16.99 350.79 18.53
  C 348.68 19.04 346.85 18.88 345.07 19.47
  C 343.03 20.15 340.38 20.09 338.09 19.65
  A 1.09 1.08 33.8 0 1 337.70 17.68
  C 340.07 16.11 342.68 16.08 344.85 14.40
  A 0.56 0.56 0.0 0 0 344.28 13.44
  L 334.64 17.53
  A 2.08 1.87 -56.2 0 1 334.13 17.66
  Q 328.44 18.34 323.41 17.53
  A 4.91 4.80 45.6 0 0 321.99 17.50
  C 316.03 18.19 311.79 18.92 306.63 18.90
  Q 291.94 18.83 281.73 19.17
  A 4.58 4.27 35.7 0 0 280.79 19.29
  Q 278.76 19.79 277.77 19.83
  Q 261.27 20.52 247.53 28.21
  A 7.32 6.65 19.7 0 1 246.11 28.80
  C 241.17 30.21 237.15 32.54 232.78 34.31
  Q 224.46 37.69 223.68 37.85
  C 219.92 38.64 217.95 38.34 215.63 34.59
  Q 215.54 34.45 211.09 27.03
  Q 210.36 25.82 209.68 25.18
  C 208.26 23.86 207.88 22.14 206.40 20.99
  Q 204.45 19.47 203.80 19.34
  Q 199.87 18.55 199.29 18.31
  A 1.06 1.05 40.6 0 0 198.33 18.38
  C 196.31 19.58 191.86 16.43 190.02 15.01
  A 0.68 0.68 0.0 0 0 188.96 15.78
  L 190.51 20.14
  A 1.78 1.76 -46.3 0 1 190.53 21.27
  Q 189.54 24.59 190.50 28.07
  C 191.04 30.03 190.63 31.04 189.60 32.63
  Q 184.18 41.00 174.80 36.69
  Q 165.12 32.23 155.26 28.08
  Q 152.78 27.03 145.98 23.25
  Q 140.63 20.28 130.03 18.90
  Q 127.11 18.52 126.91 18.47
  A 4.30 0.39 13.4 0 0 124.56 18.13
  L 86.37 17.89
  A 5.53 5.51 -38.0 0 1 85.05 17.73
  Q 82.33 17.09 76.95 16.95
  A 3.14 2.95 35.4 0 0 76.00 17.08
  Q 72.02 18.34 67.79 17.68
  Q 62.92 16.93 62.15 17.05
  Q 61.16 17.20 55.03 15.98
  Q 45.85 14.14 37.74 10.11
  A 0.35 0.34 -11.5 0 0 37.36 10.68
  Q 39.71 12.66 42.76 13.73
  Q 46.69 15.12 54.97 17.41
  A 0.90 0.89 -67.5 0 1 55.51 18.72
  C 53.94 21.45 47.21 18.68 45.23 18.86
  Q 42.91 19.08 41.21 18.55
  Q 39.90 18.14 34.53 17.23
  C 29.21 16.32 22.60 13.93 18.28 11.78
  A 0.25 0.25 0.0 0 0 17.95 12.11
  Q 18.92 14.01 21.18 15.10
  Q 27.41 18.08 37.23 20.53
  C 40.20 21.27 43.05 20.92 46.29 22.21
  Q 47.65 22.75 47.77 23.38
  A 1.02 0.99 -7.2 0 1 46.84 24.54
  Q 40.36 25.07 31.84 24.90
  A 4.74 4.74 0.0 0 1 30.74 24.73
  Q 28.19 24.01 24.51 23.88
  A 4.41 4.08 -31.7 0 1 23.28 23.64
  Q 21.36 22.93 18.52 22.92
  A 0.54 0.47 49.1 0 1 18.38 22.90
  L 11.60 21.05
  A 0.37 0.36 -9.3 0 0 11.20 21.60
  C 12.24 23.14 14.00 22.86 15.54 23.99
  C 19.64 27.00 24.34 27.61 29.73 28.43
  C 35.64 29.33 44.05 29.08 47.50 29.02
  A 2.60 2.59 14.4 0 0 49.69 27.73
  L 50.89 25.65
  A 0.74 0.74 0.0 0 1 52.14 25.59
  C 55.30 30.05 49.59 31.96 45.97 32.97
  Q 39.47 34.79 23.01 36.79
  C 20.63 37.08 18.25 36.63 15.97 37.79
  A 0.34 0.34 0.0 0 0 16.01 38.41
  C 21.94 40.72 28.67 43.07 35.15 41.47
  C 36.79 41.07 38.42 40.88 39.89 41.39
  A 1.11 1.11 0.0 0 1 40.38 43.14
  Q 40.18 43.38 39.31 43.82
  Q 35.25 45.88 29.90 47.50
  A 0.85 0.85 0.0 0 0 29.82 49.09
  C 32.69 50.28 35.38 49.81 38.41 50.57
  C 41.82 51.42 44.02 49.78 47.22 50.24
  A 1.68 1.67 11.6 0 1 48.60 52.33
  L 48.05 54.35
  A 1.05 1.04 -78.2 0 0 48.90 55.66
  L 62.65 57.67
  A 1.38 1.37 -87.7 0 1 63.82 58.95
  L 64.00 62.01
  A 1.02 1.02 0.0 0 0 65.08 62.97
  Q 69.38 62.73 72.80 63.52
  A 4.47 3.78 -0.2 0 1 75.94 66.16
  Q 76.05 66.51 77.03 66.77
  Q 83.58 68.53 90.30 70.25
  A 0.47 0.45 68.0 0 1 90.50 70.34
  L 92.24 71.52
  A 0.56 0.48 63.4 0 0 92.43 71.60
  Q 97.62 72.87 102.28 70.75
  A 1.65 1.63 89.7 0 0 103.09 69.92
  Q 103.87 68.17 105.27 67.41
  A 1.79 1.79 0.0 0 1 107.91 68.89
  L 108.11 72.24
  A 1.74 1.74 0.0 0 0 109.46 73.84
  Q 113.91 74.83 118.42 76.40
  Q 119.27 76.69 120.05 77.31
  A 2.22 2.21 -20.8 0 0 121.15 77.80
  L 132.29 79.54
  A 0.86 0.25 29.0 0 1 132.42 79.57
  L 138.74 81.55
  A 0.90 0.81 -10.1 0 1 139.11 81.78
  Q 140.83 83.68 141.80 83.75
  Q 145.79 84.05 148.90 84.30
  A 2.58 2.56 65.1 0 1 150.19 84.78
  Q 151.72 85.89 153.50 86.45
  A 2.17 2.07 44.7 0 0 154.71 86.47
  Q 157.03 85.80 157.95 86.53
  A 1.21 1.20 33.3 0 0 159.76 86.16
  L 163.67 78.88
  A 1.24 0.69 -87.6 0 1 163.78 78.70
  Q 166.29 75.21 166.08 71.65
  A 0.60 0.60 0.0 0 1 167.25 71.42
  Q 169.44 78.00 169.05 84.99
  A 1.02 1.01 -73.6 0 0 169.55 85.92
  L 173.73 88.33
  A 2.35 2.34 -74.9 0 1 174.90 90.38
  Q 174.82 95.99 176.57 101.26
  A 5.97 5.88 38.6 0 1 176.85 103.61
  Q 176.15 111.82 172.09 119.70
  A 0.22 0.22 0.0 0 0 172.30 120.02
  L 187.31 119.14
  A 0.58 0.58 0.0 0 0 187.86 118.58
  L 188.13 107.67
  A 1.71 1.55 60.6 0 1 188.27 107.05
  Q 190.55 102.12 191.08 101.05
  Q 192.64 97.93 193.69 93.62
  C 194.40 90.73 195.16 87.66 195.16 84.09
  Q 195.16 80.95 195.16 74.49
  Q 195.16 74.18 195.67 74.10
  A 0.37 0.37 0.0 0 1 196.10 74.50
  Q 195.99 75.64 196.79 75.88
  A 1.72 1.70 -86.0 0 1 197.99 77.27
  Q 198.90 83.20 200.23 87.47
  C 201.04 90.06 201.37 94.10 203.06 96.66
  C 204.13 98.28 203.78 100.41 205.43 101.80
  A 0.56 0.55 40.3 0 0 206.22 101.74
  Z
  M 33.60 205.70
  Q 34.15 205.09 38.18 198.67
  Q 45.55 186.95 59.24 174.23
  C 62.47 171.24 66.31 171.47 70.75 171.45
  Q 101.69 171.36 142.19 171.55
  A 0.75 0.75 0.0 0 0 142.94 170.66
  Q 139.50 152.96 138.46 135.49
  C 137.81 124.64 155.74 121.93 163.23 121.08
  A 0.78 0.77 -2.2 0 0 163.91 120.35
  C 164.03 117.85 163.70 115.52 164.34 113.06
  Q 165.69 107.86 167.46 103.78
  A 4.06 3.91 62.3 0 0 167.74 102.82
  Q 168.15 100.21 168.29 99.80
  C 169.54 96.08 169.10 90.90 168.23 87.51
  A 3.89 3.57 -55.1 0 1 168.12 86.69
  L 167.94 78.88
  A 4.38 4.25 37.0 0 0 167.76 77.72
  L 166.93 74.85
  A 0.27 0.27 0.0 0 0 166.41 74.88
  Q 165.91 77.49 165.08 78.51
  A 6.18 6.07 75.8 0 0 164.17 80.07
  Q 161.93 85.62 160.92 86.93
  Q 158.54 89.99 157.53 91.82
  A 3.90 3.62 -10.4 0 1 156.94 92.61
  Q 153.66 96.01 144.50 106.51
  Q 143.60 107.55 142.71 108.22
  C 141.55 109.09 141.52 110.21 139.94 110.83
  A 1.41 1.37 0.8 0 0 139.18 111.55
  Q 137.93 114.27 134.87 116.08
  A 4.69 4.62 2.7 0 0 133.53 117.28
  Q 129.50 122.58 127.82 125.82
  Q 126.62 128.15 123.66 136.82
  A 6.73 6.17 -39.6 0 1 123.30 137.68
  Q 121.77 140.73 121.51 142.78
  Q 120.74 148.83 119.79 156.15
  A 1.36 1.25 17.0 0 1 117.89 157.06
  Q 117.00 156.64 116.69 155.54
  Q 115.24 150.32 114.46 148.32
  A 6.57 6.33 34.7 0 1 114.03 146.18
  Q 113.83 139.10 114.09 138.00
  Q 115.00 134.12 115.23 129.79
  Q 115.24 129.71 116.92 125.28
  A 0.19 0.19 0.0 0 0 116.64 125.06
  Q 114.44 126.49 113.94 127.98
  Q 112.10 133.41 107.95 140.22
  Q 107.04 141.73 105.89 143.72
  A 4.89 4.76 -10.5 0 1 105.41 144.40
  Q 101.49 149.00 99.31 152.97
  Q 97.04 157.11 93.28 159.92
  A 0.73 0.73 0.0 0 1 92.15 159.10
  L 94.83 151.15
  A 6.69 6.59 54.6 0 0 95.17 149.05
  L 95.17 146.75
  A 0.88 0.87 72.4 0 1 95.53 146.04
  Q 95.88 145.78 95.88 145.58
  Q 95.91 144.70 95.27 145.28
  Q 95.04 145.48 94.89 146.32
  A 2.24 2.20 71.0 0 1 94.41 147.33
  L 83.30 160.53
  A 3.21 2.95 81.3 0 0 82.95 161.05
  L 81.61 163.69
  A 0.38 0.38 0.0 0 1 80.89 163.50
  L 81.04 160.39
  A 2.46 2.27 -52.9 0 0 80.97 159.67
  Q 79.59 154.13 79.13 152.71
  C 78.19 149.81 76.89 147.98 74.50 146.63
  A 3.25 3.20 89.7 0 1 73.24 145.36
  L 70.97 141.22
  A 0.35 0.35 0.0 0 0 70.33 141.51
  Q 70.38 141.69 70.66 142.11
  A 1.91 1.87 26.7 0 1 70.96 142.98
  Q 71.57 150.29 68.57 156.90
  A 5.75 5.63 -28.8 0 0 68.15 158.29
  Q 67.84 160.13 67.17 161.65
  A 0.50 0.50 0.0 0 1 66.60 161.94
  L 66.57 161.94
  A 0.70 0.70 0.0 0 1 66.02 161.19
  Q 66.50 156.44 64.45 152.03
  Q 62.75 148.36 62.30 147.05
  A 7.17 6.54 -60.8 0 1 62.00 145.77
  Q 60.85 136.83 58.96 129.91
  Q 58.33 127.60 57.31 122.54
  Q 56.64 119.24 55.12 115.32
  A 0.51 0.51 0.0 0 0 54.13 115.50
  Q 53.99 124.90 51.04 132.46
  A 7.74 7.34 -18.0 0 1 50.15 134.10
  Q 46.51 139.05 44.98 142.27
  Q 41.72 149.10 39.53 152.58
  A 8.00 7.72 -8.4 0 1 38.53 153.88
  Q 32.73 160.11 31.37 163.61
  Q 27.65 173.21 27.38 173.77
  A 5.30 5.21 57.8 0 0 26.87 176.12
  L 27.04 185.29
  A 2.83 2.66 -59.1 0 0 27.27 186.35
  L 32.86 199.02
  A 1.81 1.75 -58.1 0 1 33.02 199.76
  L 33.02 205.47
  A 0.34 0.33 66.4 0 0 33.60 205.70
  Z
  M 196.32 77.13
  A 0.35 0.35 0.0 0 0 195.95 77.51
  Q 196.88 88.59 193.45 97.77
  Q 192.63 99.97 190.50 104.75
  Q 190.45 104.85 189.88 105.73
  Q 189.12 106.92 189.06 109.27
  Q 188.82 118.65 188.81 118.67
  A 0.24 0.24 0.0 0 0 189.03 118.97
  L 212.47 120.30
  A 0.41 0.40 -83.6 0 0 212.89 119.96
  C 213.54 116.08 210.11 110.95 207.83 108.23
  A 8.87 8.42 -79.9 0 1 206.72 106.55
  Q 206.18 105.47 203.31 100.04
  Q 200.94 95.54 200.30 92.03
  C 199.25 86.37 197.64 82.45 196.84 77.34
  A 0.23 0.23 0.0 0 0 196.63 77.15
  L 196.32 77.13
  Z
  M 240.46 90.18
  C 239.98 90.90 239.84 91.72 239.04 92.44
  Q 236.03 95.17 234.65 97.29
  A 1.10 1.10 0.0 0 1 233.83 97.79
  Q 228.42 98.29 223.38 101.27
  A 0.43 0.42 -40.5 0 0 223.32 101.96
  L 234.56 111.42
  A 2.39 2.37 7.5 0 1 235.17 112.21
  L 238.85 119.86
  A 0.80 0.76 33.5 0 1 238.94 120.26
  Q 238.91 124.78 240.88 128.89
  A 1.35 1.32 -59.5 0 1 241.01 129.42
  L 241.08 131.35
  A 0.41 0.40 5.6 0 0 241.40 131.73
  L 241.43 131.73
  A 0.32 0.32 0.0 0 0 241.77 131.45
  Q 242.35 127.03 243.78 124.98
  C 245.99 121.80 246.97 117.38 248.02 114.75
  A 2.08 2.02 -36.8 0 0 248.17 113.80
  Q 248.00 111.90 248.17 110.39
  Q 248.19 110.25 248.31 110.13
  Q 248.48 109.97 248.73 110.03
  A 0.32 0.32 0.0 0 1 248.97 110.33
  Q 249.30 116.88 254.68 120.29
  A 2.56 2.40 87.4 0 1 255.36 120.95
  L 257.65 124.18
  A 0.63 0.58 -87.8 0 0 257.77 124.32
  Q 261.83 128.06 262.54 129.21
  Q 265.62 134.12 267.29 136.85
  A 8.64 8.54 22.3 0 1 268.27 139.15
  Q 270.40 147.00 269.97 155.52
  A 0.39 0.39 0.0 0 0 270.56 155.87
  Q 272.07 154.98 272.65 153.35
  Q 273.60 150.72 273.96 150.55
  Q 274.11 150.49 276.09 146.94
  A 9.48 9.43 -8.8 0 1 277.43 145.12
  Q 283.93 138.27 290.60 133.99
  A 0.40 0.40 0.0 0 0 290.57 133.30
  C 286.70 131.25 284.36 127.07 282.11 123.52
  A 0.55 0.55 0.0 0 0 281.31 123.38
  Q 273.39 129.59 267.53 122.33
  A 3.60 2.92 18.5 0 1 267.13 121.70
  Q 266.04 119.40 264.95 118.21
  A 3.16 3.04 -77.6 0 1 264.35 117.23
  Q 262.11 111.29 262.08 110.39
  Q 261.97 107.77 260.44 103.63
  Q 259.26 100.43 260.83 93.25
  A 2.33 1.94 -64.8 0 0 260.87 92.93
  L 261.13 86.83
  A 4.92 4.89 60.1 0 1 261.67 84.81
  L 262.94 82.36
  A 0.93 0.93 0.0 0 0 262.07 81.00
  L 261.89 81.00
  A 1.80 1.78 5.9 0 0 260.27 82.30
  Q 259.37 85.53 258.39 87.15
  C 255.84 91.38 254.02 94.22 252.65 98.47
  Q 251.43 102.28 249.74 105.69
  A 0.44 0.44 0.0 0 1 249.00 105.76
  Q 244.66 100.17 243.01 93.19
  Q 242.92 92.81 241.11 90.18
  A 0.39 0.39 0.0 0 0 240.46 90.18
  Z
  M 170.13 95.71
  A 0.21 0.21 0.0 0 0 170.54 95.77
  L 172.73 90.01
  A 0.69 0.69 0.0 0 0 172.67 89.42
  Q 171.69 87.80 169.85 86.86
  A 0.15 0.15 0.0 0 0 169.63 87.00
  L 170.13 95.71
  Z
  M 173.34 91.89
  C 172.13 93.27 172.03 94.23 171.75 95.94
  A 1.96 1.94 74.3 0 1 171.09 97.13
  C 168.71 99.18 169.19 102.26 168.29 104.80
  Q 165.69 112.12 165.35 113.18
  A 5.34 5.03 57.3 0 0 165.11 114.46
  L 164.79 120.23
  A 0.58 0.58 0.0 0 0 165.46 120.83
  L 169.53 120.24
  A 3.71 3.69 -86.5 0 0 172.56 117.55
  L 175.64 106.22
  A 4.21 4.17 -41.6 0 0 175.75 104.48
  L 173.93 92.07
  A 0.34 0.34 0.0 0 0 173.34 91.89
  Z
  M 212.83 93.93
  Q 212.49 98.80 215.38 102.95
  A 3.81 3.35 -76.9 0 1 215.75 103.64
  L 217.62 108.45
  A 3.45 3.43 -60.8 0 1 217.81 109.13
  Q 218.59 113.55 216.85 120.52
  A 0.66 0.66 0.0 0 0 217.40 121.33
  C 225.30 122.42 235.10 124.09 239.80 130.84
  A 0.19 0.19 0.0 0 0 240.13 130.66
  Q 238.50 126.93 238.12 123.61
  C 237.68 119.64 236.10 114.91 234.15 112.76
  Q 229.68 107.81 221.28 101.85
  Q 214.87 97.31 214.66 97.09
  A 2.06 2.04 -76.4 0 1 214.15 96.24
  L 213.43 93.87
  A 0.31 0.30 39.0 0 0 212.83 93.93
  Z
  M 211.93 95.04
  A 0.23 0.22 -30.2 0 0 211.51 94.93
  C 210.76 96.22 209.50 100.07 207.84 101.03
  A 2.27 2.13 64.4 0 0 206.98 103.76
  Q 207.92 106.14 210.15 109.28
  Q 213.91 114.57 214.06 120.23
  A 0.85 0.84 51.4 0 0 215.72 120.42
  L 217.02 115.27
  A 2.21 1.58 62.2 0 0 217.06 114.98
  Q 217.13 108.26 214.22 103.09
  Q 212.02 99.16 211.93 95.04
  Z
  M 140.36 109.89
  Q 140.55 109.78 140.70 109.54
  A 0.21 0.21 0.0 0 0 140.46 109.23
  Q 140.11 109.34 140.00 109.49
  A 0.28 0.27 3.1 0 0 140.36 109.89
  Z
  M 97.28 117.63
  C 97.51 119.90 93.08 123.14 91.10 124.84
  C 87.63 127.80 81.53 124.93 77.84 123.93
  Q 77.03 123.71 71.83 122.49
  A 0.88 0.87 28.4 0 0 71.01 122.73
  Q 67.05 126.89 64.75 132.53
  C 64.25 133.75 63.40 134.85 62.39 136.01
  A 1.70 1.69 65.0 0 0 61.97 137.18
  L 62.03 139.70
  A 4.33 3.82 41.4 0 0 62.13 140.50
  L 63.27 145.55
  A 4.42 2.78 61.5 0 0 63.44 146.13
  L 67.16 156.60
  A 0.20 0.20 0.0 0 0 67.52 156.65
  C 68.97 154.68 68.89 153.40 69.63 150.64
  Q 70.81 146.23 69.23 140.74
  Q 68.99 139.90 69.04 139.79
  A 1.22 1.22 0.0 0 1 71.26 139.70
  L 73.85 144.79
  A 2.36 2.34 3.2 0 0 74.69 145.72
  Q 80.04 149.07 80.86 155.14
  Q 81.25 158.04 81.84 158.84
  A 0.52 0.51 50.7 0 0 82.60 158.92
  Q 85.89 155.95 87.48 153.67
  Q 88.45 152.26 91.23 149.55
  Q 93.41 147.42 94.55 145.05
  Q 94.98 144.16 96.12 143.97
  A 0.64 0.64 0.0 0 1 96.86 144.68
  Q 96.00 151.51 93.81 156.53
  A 0.34 0.34 0.0 0 0 94.29 156.96
  Q 96.54 155.61 97.87 153.14
  Q 100.79 147.76 104.12 143.85
  Q 105.62 142.09 110.02 134.45
  C 111.40 132.05 111.94 129.35 112.86 127.13
  A 5.26 5.26 0.0 0 1 116.29 124.09
  L 117.25 123.82
  A 0.94 0.94 0.0 0 1 118.34 125.15
  Q 116.33 129.13 116.10 131.35
  Q 115.75 134.72 115.11 137.56
  Q 114.64 139.63 115.19 147.06
  Q 115.24 147.81 116.28 149.77
  A 4.93 4.89 -62.7 0 1 116.84 151.54
  Q 117.10 153.67 118.06 155.53
  A 0.53 0.52 -60.0 0 0 119.05 155.26
  Q 118.90 152.28 119.33 150.57
  Q 120.00 147.95 119.98 145.93
  Q 119.97 143.71 121.19 139.22
  C 121.52 138.04 122.33 137.41 122.61 136.32
  Q 122.91 135.19 123.21 134.46
  Q 125.30 129.49 126.40 126.29
  A 1.00 0.66 -33.7 0 1 126.45 126.17
  L 129.67 120.04
  A 5.29 5.25 -6.6 0 1 130.87 118.54
  L 137.91 112.52
  A 1.00 1.00 0.0 0 0 136.86 110.85
  L 128.37 114.60
  A 0.78 0.76 36.2 0 1 127.95 114.66
  Q 124.27 114.17 122.44 112.09
  A 0.60 0.60 0.0 0 0 121.60 112.03
  Q 120.16 113.25 116.04 115.73
  Q 114.24 116.81 109.74 121.81
  A 3.38 3.16 -81.6 0 1 108.95 122.44
  Q 104.28 125.10 100.73 125.84
  C 98.48 126.31 97.97 124.65 97.99 122.72
  Q 98.04 117.23 98.03 117.22
  A 0.46 0.46 0.0 0 0 97.28 117.63
  Z
  M 248.65 115.53
  L 247.06 121.36
  A 4.84 4.65 71.3 0 1 246.37 122.83
  Q 243.19 127.35 242.74 131.66
  A 2.94 2.90 -22.2 0 1 242.05 133.27
  L 240.84 134.72
  A 0.70 0.67 -22.7 0 0 240.67 135.11
  Q 239.05 153.76 236.09 170.54
  A 0.76 0.76 0.0 0 0 236.77 171.43
  Q 238.03 171.53 238.52 171.53
  Q 259.17 171.40 311.25 171.43
  C 317.50 171.43 319.38 173.72 324.04 178.28
  Q 337.83 191.79 347.28 209.32
  A 0.34 0.34 0.0 0 0 347.92 209.19
  Q 348.39 203.72 346.16 198.83
  Q 341.89 189.45 339.28 183.90
  A 3.42 3.29 -63.9 0 1 339.01 183.06
  Q 338.47 180.32 336.92 178.03
  Q 334.20 174.01 331.78 167.44
  C 330.72 164.54 331.26 161.20 329.04 158.53
  A 3.20 3.15 -69.5 0 1 328.33 156.94
  L 327.73 152.82
  A 2.34 2.27 -62.6 0 0 327.54 152.19
  Q 324.32 145.31 324.22 144.00
  Q 323.79 138.20 322.38 130.41
  Q 321.86 127.56 322.04 124.56
  A 0.46 0.46 0.0 0 0 321.30 124.16
  C 319.42 125.54 318.90 129.22 318.65 131.41
  Q 318.39 133.72 316.68 136.95
  A 9.26 9.14 67.5 0 0 315.95 138.75
  Q 314.67 143.19 312.65 146.15
  A 3.74 3.69 69.2 0 0 312.09 147.42
  Q 311.33 150.64 310.88 151.38
  Q 306.64 158.53 306.57 158.77
  A 9.77 9.56 56.9 0 0 306.12 161.03
  L 305.69 166.81
  A 0.99 0.99 0.0 0 1 303.89 167.31
  Q 298.53 159.78 299.09 152.84
  A 1.77 1.74 38.2 0 0 298.99 152.06
  L 298.05 149.42
  A 0.49 0.49 0.0 0 0 297.12 149.45
  L 294.30 159.07
  A 0.93 0.93 0.0 0 1 292.62 159.29
  Q 292.21 158.63 292.14 157.18
  Q 291.74 149.13 292.09 143.28
  A 8.08 8.05 64.5 0 1 293.55 139.12
  C 295.08 136.95 297.47 133.16 297.11 130.56
  A 0.98 0.98 0.0 0 0 295.28 130.24
  Q 295.01 130.75 292.97 133.46
  Q 292.13 134.56 289.95 135.96
  Q 283.98 139.77 278.02 146.27
  Q 276.47 147.96 276.07 149.32
  C 275.62 150.86 274.19 150.98 274.11 152.71
  Q 274.06 153.79 272.89 155.04
  Q 270.85 157.21 269.05 160.55
  A 1.10 1.09 9.8 0 1 268.24 161.12
  L 267.81 161.18
  A 0.52 0.52 0.0 0 1 267.26 160.45
  Q 269.68 155.17 269.01 149.49
  Q 268.29 143.37 267.30 139.24
  A 6.08 6.04 -68.0 0 0 266.56 137.48
  L 261.76 129.77
  A 9.10 8.85 -85.8 0 0 260.13 127.83
  Q 257.05 125.09 254.92 122.05
  A 3.62 3.62 0.0 0 0 254.05 121.18
  Q 250.68 118.82 249.14 115.49
  A 0.26 0.26 0.0 0 0 248.65 115.53
  Z
  M 293.45 157.56
  L 296.76 148.83
  A 0.78 0.77 27.7 0 1 297.93 148.47
  C 299.50 149.57 299.92 150.79 299.94 152.90
  Q 300.01 157.73 301.14 160.19
  Q 302.91 164.01 304.11 166.58
  A 0.45 0.45 0.0 0 0 304.96 166.44
  C 305.15 164.61 304.33 159.62 305.79 157.76
  C 307.35 155.74 308.40 153.30 309.66 150.60
  C 310.73 148.29 308.17 145.61 307.21 144.05
  A 18.94 18.77 23.8 0 1 304.82 137.98
  C 304.35 135.72 303.96 134.07 303.96 131.63
  Q 303.99 119.87 303.95 117.99
  A 0.25 0.25 0.0 0 0 303.45 117.94
  Q 302.86 120.79 301.09 122.48
  C 299.92 123.60 300.15 124.93 299.11 125.86
  C 297.51 127.27 297.74 129.70 297.90 132.10
  A 3.11 3.02 -36.0 0 1 297.65 133.53
  Q 296.12 136.94 295.26 138.14
  C 293.27 140.92 293.07 142.03 292.93 146.00
  Q 292.70 152.54 293.15 157.52
  A 0.16 0.15 -37.3 0 0 293.45 157.56
  Z"
/>
<path fill="#ff7700" d="
  M 205.43 101.80
  C 203.78 100.41 204.13 98.28 203.06 96.66
  C 201.37 94.10 201.04 90.06 200.23 87.47
  Q 198.90 83.20 197.99 77.27
  A 1.72 1.70 -86.0 0 0 196.79 75.88
  Q 195.99 75.64 196.10 74.50
  A 0.37 0.37 0.0 0 0 195.67 74.10
  Q 195.16 74.18 195.16 74.49
  Q 195.16 80.95 195.16 84.09
  C 195.16 87.66 194.40 90.73 193.69 93.62
  Q 192.64 97.93 191.08 101.05
  Q 190.55 102.12 188.27 107.05
  A 1.71 1.55 60.6 0 0 188.13 107.67
  L 187.86 118.58
  A 0.58 0.58 0.0 0 1 187.31 119.14
  L 172.30 120.02
  A 0.22 0.22 0.0 0 1 172.09 119.70
  Q 176.15 111.82 176.85 103.61
  A 5.97 5.88 38.6 0 0 176.57 101.26
  Q 174.82 95.99 174.90 90.38
  A 2.35 2.34 -74.9 0 0 173.73 88.33
  L 169.55 85.92
  A 1.02 1.01 -73.6 0 1 169.05 84.99
  Q 169.44 78.00 167.25 71.42
  A 0.60 0.60 0.0 0 0 166.08 71.65
  Q 166.29 75.21 163.78 78.70
  A 1.24 0.69 -87.6 0 0 163.67 78.88
  L 159.76 86.16
  A 1.21 1.20 33.3 0 1 157.95 86.53
  Q 157.03 85.80 154.71 86.47
  A 2.17 2.07 44.7 0 1 153.50 86.45
  Q 151.72 85.89 150.19 84.78
  A 2.58 2.56 65.1 0 0 148.90 84.30
  Q 145.79 84.05 141.80 83.75
  Q 140.83 83.68 139.11 81.78
  A 0.90 0.81 -10.1 0 0 138.74 81.55
  L 132.42 79.57
  A 0.86 0.25 29.0 0 0 132.29 79.54
  L 121.15 77.80
  A 2.22 2.21 -20.8 0 1 120.05 77.31
  Q 119.27 76.69 118.42 76.40
  Q 113.91 74.83 109.46 73.84
  A 1.74 1.74 0.0 0 1 108.11 72.24
  L 107.91 68.89
  A 1.79 1.79 0.0 0 0 105.27 67.41
  Q 103.87 68.17 103.09 69.92
  A 1.65 1.63 89.7 0 1 102.28 70.75
  Q 97.62 72.87 92.43 71.60
  A 0.56 0.48 63.4 0 1 92.24 71.52
  L 90.50 70.34
  A 0.47 0.45 68.0 0 0 90.30 70.25
  Q 83.58 68.53 77.03 66.77
  Q 76.05 66.51 75.94 66.16
  A 4.47 3.78 -0.2 0 0 72.80 63.52
  Q 69.38 62.73 65.08 62.97
  A 1.02 1.02 0.0 0 1 64.00 62.01
  L 63.82 58.95
  A 1.38 1.37 -87.7 0 0 62.65 57.67
  L 48.90 55.66
  A 1.05 1.04 -78.2 0 1 48.05 54.35
  L 48.60 52.33
  A 1.68 1.67 11.6 0 0 47.22 50.24
  C 44.02 49.78 41.82 51.42 38.41 50.57
  C 35.38 49.81 32.69 50.28 29.82 49.09
  A 0.85 0.85 0.0 0 1 29.90 47.50
  Q 35.25 45.88 39.31 43.82
  Q 40.18 43.38 40.38 43.14
  A 1.11 1.11 0.0 0 0 39.89 41.39
  C 38.42 40.88 36.79 41.07 35.15 41.47
  C 28.67 43.07 21.94 40.72 16.01 38.41
  A 0.34 0.34 0.0 0 1 15.97 37.79
  C 18.25 36.63 20.63 37.08 23.01 36.79
  Q 39.47 34.79 45.97 32.97
  C 49.59 31.96 55.30 30.05 52.14 25.59
  A 0.74 0.74 0.0 0 0 50.89 25.65
  L 49.69 27.73
  A 2.60 2.59 14.4 0 1 47.50 29.02
  C 44.05 29.08 35.64 29.33 29.73 28.43
  C 24.34 27.61 19.64 27.00 15.54 23.99
  C 14.00 22.86 12.24 23.14 11.20 21.60
  A 0.37 0.36 -9.3 0 1 11.60 21.05
  L 18.38 22.90
  A 0.54 0.47 49.1 0 0 18.52 22.92
  Q 21.36 22.93 23.28 23.64
  A 4.41 4.08 -31.7 0 0 24.51 23.88
  Q 28.19 24.01 30.74 24.73
  A 4.74 4.74 0.0 0 0 31.84 24.90
  Q 40.36 25.07 46.84 24.54
  A 1.02 0.99 -7.2 0 0 47.77 23.38
  Q 47.65 22.75 46.29 22.21
  C 43.05 20.92 40.20 21.27 37.23 20.53
  Q 27.41 18.08 21.18 15.10
  Q 18.92 14.01 17.95 12.11
  A 0.25 0.25 0.0 0 1 18.28 11.78
  C 22.60 13.93 29.21 16.32 34.53 17.23
  Q 39.90 18.14 41.21 18.55
  Q 42.91 19.08 45.23 18.86
  C 47.21 18.68 53.94 21.45 55.51 18.72
  A 0.90 0.89 -67.5 0 0 54.97 17.41
  Q 46.69 15.12 42.76 13.73
  Q 39.71 12.66 37.36 10.68
  A 0.35 0.34 -11.5 0 1 37.74 10.11
  Q 45.85 14.14 55.03 15.98
  Q 61.16 17.20 62.15 17.05
  Q 62.92 16.93 67.79 17.68
  Q 72.02 18.34 76.00 17.08
  A 3.14 2.95 35.4 0 1 76.95 16.95
  Q 82.33 17.09 85.05 17.73
  A 5.53 5.51 -38.0 0 0 86.37 17.89
  L 124.56 18.13
  A 4.30 0.39 13.4 0 1 126.91 18.47
  Q 127.11 18.52 130.03 18.90
  Q 140.63 20.28 145.98 23.25
  Q 152.78 27.03 155.26 28.08
  Q 165.12 32.23 174.80 36.69
  Q 184.18 41.00 189.60 32.63
  C 190.63 31.04 191.04 30.03 190.50 28.07
  Q 189.54 24.59 190.53 21.27
  A 1.78 1.76 -46.3 0 0 190.51 20.14
  L 188.96 15.78
  A 0.68 0.68 0.0 0 1 190.02 15.01
  C 191.86 16.43 196.31 19.58 198.33 18.38
  A 1.06 1.05 40.6 0 1 199.29 18.31
  Q 199.87 18.55 203.80 19.34
  Q 204.45 19.47 206.40 20.99
  C 207.88 22.14 208.26 23.86 209.68 25.18
  Q 210.36 25.82 211.09 27.03
  Q 215.54 34.45 215.63 34.59
  C 217.95 38.34 219.92 38.64 223.68 37.85
  Q 224.46 37.69 232.78 34.31
  C 237.15 32.54 241.17 30.21 246.11 28.80
  A 7.32 6.65 19.7 0 0 247.53 28.21
  Q 261.27 20.52 277.77 19.83
  Q 278.76 19.79 280.79 19.29
  A 4.58 4.27 35.7 0 1 281.73 19.17
  Q 291.94 18.83 306.63 18.90
  C 311.79 18.92 316.03 18.19 321.99 17.50
  A 4.91 4.80 45.6 0 1 323.41 17.53
  Q 328.44 18.34 334.13 17.66
  A 2.08 1.87 -56.2 0 0 334.64 17.53
  L 344.28 13.44
  A 0.56 0.56 0.0 0 1 344.85 14.40
  C 342.68 16.08 340.07 16.11 337.70 17.68
  A 1.09 1.08 33.8 0 0 338.09 19.65
  C 340.38 20.09 343.03 20.15 345.07 19.47
  C 346.85 18.88 348.68 19.04 350.79 18.53
  Q 357.11 16.99 359.28 15.97
  A 0.52 0.51 -78.5 0 1 359.84 16.82
  C 358.37 18.14 356.84 18.00 355.20 18.89
  Q 351.56 20.86 347.22 21.17
  A 4.02 4.00 -58.6 0 0 345.95 21.48
  Q 344.57 22.05 342.97 22.19
  A 1.96 1.84 -12.3 0 0 341.26 24.68
  C 341.96 26.57 345.66 25.90 347.49 25.68
  Q 355.93 24.64 356.14 24.73
  Q 357.01 25.12 359.82 24.29
  Q 361.53 23.78 363.50 24.03
  A 0.50 0.49 31.5 0 1 363.72 24.93
  Q 357.88 28.93 350.86 29.14
  A 5.32 5.01 -52.7 0 0 349.48 29.37
  Q 346.79 30.16 341.81 30.12
  Q 340.25 30.10 339.95 30.42
  A 1.75 1.75 0.0 0 0 340.69 33.30
  Q 345.16 34.68 350.20 35.54
  Q 358.84 37.00 359.90 37.13
  A 3.07 3.01 63.0 0 1 360.85 37.45
  L 361.88 37.99
  A 0.30 0.30 0.0 0 1 361.82 38.54
  Q 359.34 39.18 357.61 40.69
  A 1.89 1.89 0.0 0 1 355.01 40.59
  Q 354.06 39.62 353.95 39.53
  A 1.68 1.55 -61.6 0 0 351.38 40.41
  Q 350.67 42.66 347.76 42.00
  Q 346.28 41.66 344.03 41.10
  A 1.34 1.34 0.0 0 0 342.73 43.32
  C 344.48 45.21 348.23 45.79 349.68 48.22
  A 0.43 0.42 65.8 0 1 349.45 48.84
  C 347.83 49.38 345.97 48.94 343.96 49.52
  Q 340.87 50.42 336.06 49.95
  A 2.13 2.10 -20.5 0 1 334.83 49.40
  L 333.78 48.43
  A 1.17 1.17 0.0 0 0 332.75 48.14
  C 331.27 48.42 330.67 50.12 331.31 51.53
  Q 331.73 52.45 332.06 53.63
  A 1.20 1.19 77.0 0 1 331.13 55.12
  L 319.47 57.32
  A 1.33 1.24 20.6 0 0 319.03 57.50
  Q 317.22 58.66 316.95 61.08
  A 1.01 1.00 -14.8 0 1 316.54 61.78
  Q 316.03 62.14 310.29 63.24
  Q 306.76 63.92 303.31 67.10
  A 2.78 2.77 -70.6 0 1 301.86 67.80
  Q 295.29 68.82 291.75 70.89
  Q 290.25 71.76 288.64 72.05
  A 2.12 0.17 -9.2 0 0 287.26 72.39
  L 284.41 73.72
  A 1.60 0.27 -12.1 0 1 284.24 73.78
  C 281.25 74.67 279.53 71.88 277.07 72.13
  Q 273.49 72.50 271.33 74.10
  C 269.76 75.26 268.33 74.84 266.80 75.58
  Q 265.15 76.39 263.04 77.40
  A 1.23 1.22 47.9 0 1 261.83 77.33
  Q 261.51 77.12 261.05 77.15
  Q 260.32 77.21 260.00 77.57
  C 258.48 79.31 255.97 78.98 253.97 79.75
  Q 250.46 81.09 246.76 81.16
  A 4.00 3.86 -57.0 0 0 245.24 81.51
  Q 241.41 83.27 235.45 84.06
  Q 234.25 84.22 231.29 84.92
  Q 228.48 85.60 227.25 86.23
  Q 225.66 87.03 224.18 86.55
  A 1.71 1.69 48.1 0 0 223.35 86.50
  L 215.06 88.09
  A 2.93 2.92 -85.3 0 0 212.86 89.96
  Q 210.26 96.93 206.22 101.74
  A 0.56 0.55 40.3 0 1 205.43 101.80
  Z"
/>
<path fill="#ffee00" d="
  M 33.02 205.47
  L 33.02 199.76
  A 1.81 1.75 -58.1 0 0 32.86 199.02
  L 27.27 186.35
  A 2.83 2.66 -59.1 0 1 27.04 185.29
  L 26.87 176.12
  A 5.30 5.21 57.8 0 1 27.38 173.77
  Q 27.65 173.21 31.37 163.61
  Q 32.73 160.11 38.53 153.88
  A 8.00 7.72 -8.4 0 0 39.53 152.58
  Q 41.72 149.10 44.98 142.27
  Q 46.51 139.05 50.15 134.10
  A 7.74 7.34 -18.0 0 0 51.04 132.46
  Q 53.99 124.90 54.13 115.50
  A 0.51 0.51 0.0 0 1 55.12 115.32
  Q 56.64 119.24 57.31 122.54
  Q 58.33 127.60 58.96 129.91
  Q 60.85 136.83 62.00 145.77
  A 7.17 6.54 -60.8 0 0 62.30 147.05
  Q 62.75 148.36 64.45 152.03
  Q 66.50 156.44 66.02 161.19
  A 0.70 0.70 0.0 0 0 66.57 161.94
  L 66.60 161.94
  A 0.50 0.50 0.0 0 0 67.17 161.65
  Q 67.84 160.13 68.15 158.29
  A 5.75 5.63 -28.8 0 1 68.57 156.90
  Q 71.57 150.29 70.96 142.98
  A 1.91 1.87 26.7 0 0 70.66 142.11
  Q 70.38 141.69 70.33 141.51
  A 0.35 0.35 0.0 0 1 70.97 141.22
  L 73.24 145.36
  A 3.25 3.20 89.7 0 0 74.50 146.63
  C 76.89 147.98 78.19 149.81 79.13 152.71
  Q 79.59 154.13 80.97 159.67
  A 2.46 2.27 -52.9 0 1 81.04 160.39
  L 80.89 163.50
  A 0.38 0.38 0.0 0 0 81.61 163.69
  L 82.95 161.05
  A 3.21 2.95 81.3 0 1 83.30 160.53
  L 94.41 147.33
  A 2.24 2.20 71.0 0 0 94.89 146.32
  Q 95.04 145.48 95.27 145.28
  Q 95.91 144.70 95.88 145.58
  Q 95.88 145.78 95.53 146.04
  A 0.88 0.87 72.4 0 0 95.17 146.75
  L 95.17 149.05
  A 6.69 6.59 54.6 0 1 94.83 151.15
  L 92.15 159.10
  A 0.73 0.73 0.0 0 0 93.28 159.92
  Q 97.04 157.11 99.31 152.97
  Q 101.49 149.00 105.41 144.40
  A 4.89 4.76 -10.5 0 0 105.89 143.72
  Q 107.04 141.73 107.95 140.22
  Q 112.10 133.41 113.94 127.98
  Q 114.44 126.49 116.64 125.06
  A 0.19 0.19 0.0 0 1 116.92 125.28
  Q 115.24 129.71 115.23 129.79
  Q 115.00 134.12 114.09 138.00
  Q 113.83 139.10 114.03 146.18
  A 6.57 6.33 34.7 0 0 114.46 148.32
  Q 115.24 150.32 116.69 155.54
  Q 117.00 156.64 117.89 157.06
  A 1.36 1.25 17.0 0 0 119.79 156.15
  Q 120.74 148.83 121.51 142.78
  Q 121.77 140.73 123.30 137.68
  A 6.73 6.17 -39.6 0 0 123.66 136.82
  Q 126.62 128.15 127.82 125.82
  Q 129.50 122.58 133.53 117.28
  A 4.69 4.62 2.7 0 1 134.87 116.08
  Q 137.93 114.27 139.18 111.55
  A 1.41 1.37 0.8 0 1 139.94 110.83
  C 141.52 110.21 141.55 109.09 142.71 108.22
  Q 143.60 107.55 144.50 106.51
  Q 153.66 96.01 156.94 92.61
  A 3.90 3.62 -10.4 0 0 157.53 91.82
  Q 158.54 89.99 160.92 86.93
  Q 161.93 85.62 164.17 80.07
  A 6.18 6.07 75.8 0 1 165.08 78.51
  Q 165.91 77.49 166.41 74.88
  A 0.27 0.27 0.0 0 1 166.93 74.85
  L 167.76 77.72
  A 4.38 4.25 37.0 0 1 167.94 78.88
  L 168.12 86.69
  A 3.89 3.57 -55.1 0 0 168.23 87.51
  C 169.10 90.90 169.54 96.08 168.29 99.80
  Q 168.15 100.21 167.74 102.82
  A 4.06 3.91 62.3 0 1 167.46 103.78
  Q 165.69 107.86 164.34 113.06
  C 163.70 115.52 164.03 117.85 163.91 120.35
  A 0.78 0.77 -2.2 0 1 163.23 121.08
  C 155.74 121.93 137.81 124.64 138.46 135.49
  Q 139.50 152.96 142.94 170.66
  A 0.75 0.75 0.0 0 1 142.19 171.55
  Q 101.69 171.36 70.75 171.45
  C 66.31 171.47 62.47 171.24 59.24 174.23
  Q 45.55 186.95 38.18 198.67
  Q 34.15 205.09 33.60 205.70
  A 0.34 0.33 66.4 0 1 33.02 205.47
  Z"
/>
<path fill="#ffee00" d="
  M 196.32 77.13
  L 196.63 77.15
  A 0.23 0.23 0.0 0 1 196.84 77.34
  C 197.64 82.45 199.25 86.37 200.30 92.03
  Q 200.94 95.54 203.31 100.04
  Q 206.18 105.47 206.72 106.55
  A 8.87 8.42 -79.9 0 0 207.83 108.23
  C 210.11 110.95 213.54 116.08 212.89 119.96
  A 0.41 0.40 -83.6 0 1 212.47 120.30
  L 189.03 118.97
  A 0.24 0.24 0.0 0 1 188.81 118.67
  Q 188.82 118.65 189.06 109.27
  Q 189.12 106.92 189.88 105.73
  Q 190.45 104.85 190.50 104.75
  Q 192.63 99.97 193.45 97.77
  Q 196.88 88.59 195.95 77.51
  A 0.35 0.35 0.0 0 1 196.32 77.13
  Z"
/>
<path fill="#ff7700" d="
  M 241.11 90.18
  Q 242.92 92.81 243.01 93.19
  Q 244.66 100.17 249.00 105.76
  A 0.44 0.44 0.0 0 0 249.74 105.69
  Q 251.43 102.28 252.65 98.47
  C 254.02 94.22 255.84 91.38 258.39 87.15
  Q 259.37 85.53 260.27 82.30
  A 1.80 1.78 5.9 0 1 261.89 81.00
  L 262.07 81.00
  A 0.93 0.93 0.0 0 1 262.94 82.36
  L 261.67 84.81
  A 4.92 4.89 60.1 0 0 261.13 86.83
  L 260.87 92.93
  A 2.33 1.94 -64.8 0 1 260.83 93.25
  Q 259.26 100.43 260.44 103.63
  Q 261.97 107.77 262.08 110.39
  Q 262.11 111.29 264.35 117.23
  A 3.16 3.04 -77.6 0 0 264.95 118.21
  Q 266.04 119.40 267.13 121.70
  A 3.60 2.92 18.5 0 0 267.53 122.33
  Q 273.39 129.59 281.31 123.38
  A 0.55 0.55 0.0 0 1 282.11 123.52
  C 284.36 127.07 286.70 131.25 290.57 133.30
  A 0.40 0.40 0.0 0 1 290.60 133.99
  Q 283.93 138.27 277.43 145.12
  A 9.48 9.43 -8.8 0 0 276.09 146.94
  Q 274.11 150.49 273.96 150.55
  Q 273.60 150.72 272.65 153.35
  Q 272.07 154.98 270.56 155.87
  A 0.39 0.39 0.0 0 1 269.97 155.52
  Q 270.40 147.00 268.27 139.15
  A 8.64 8.54 22.3 0 0 267.29 136.85
  Q 265.62 134.12 262.54 129.21
  Q 261.83 128.06 257.77 124.32
  A 0.63 0.58 -87.8 0 1 257.65 124.18
  L 255.36 120.95
  A 2.56 2.40 87.4 0 0 254.68 120.29
  Q 249.30 116.88 248.97 110.33
  A 0.32 0.32 0.0 0 0 248.73 110.03
  Q 248.48 109.97 248.31 110.13
  Q 248.19 110.25 248.17 110.39
  Q 248.00 111.90 248.17 113.80
  A 2.08 2.02 -36.8 0 1 248.02 114.75
  C 246.97 117.38 245.99 121.80 243.78 124.98
  Q 242.35 127.03 241.77 131.45
  A 0.32 0.32 0.0 0 1 241.43 131.73
  L 241.40 131.73
  A 0.41 0.40 5.6 0 1 241.08 131.35
  L 241.01 129.42
  A 1.35 1.32 -59.5 0 0 240.88 128.89
  Q 238.91 124.78 238.94 120.26
  A 0.80 0.76 33.5 0 0 238.85 119.86
  L 235.17 112.21
  A 2.39 2.37 7.5 0 0 234.56 111.42
  L 223.32 101.96
  A 0.43 0.42 -40.5 0 1 223.38 101.27
  Q 228.42 98.29 233.83 97.79
  A 1.10 1.10 0.0 0 0 234.65 97.29
  Q 236.03 95.17 239.04 92.44
  C 239.84 91.72 239.98 90.90 240.46 90.18
  A 0.39 0.39 0.0 0 1 241.11 90.18
  Z"
/>
<path fill="#ff7700" d="
  M 173.93 92.07
  L 175.75 104.48
  A 4.21 4.17 -41.6 0 1 175.64 106.22
  L 172.56 117.55
  A 3.71 3.69 -86.5 0 1 169.53 120.24
  L 165.46 120.83
  A 0.58 0.58 0.0 0 1 164.79 120.23
  L 165.11 114.46
  A 5.34 5.03 57.3 0 1 165.35 113.18
  Q 165.69 112.12 168.29 104.80
  C 169.19 102.26 168.71 99.18 171.09 97.13
  A 1.96 1.94 74.3 0 0 171.75 95.94
  C 172.03 94.23 172.13 93.27 173.34 91.89
  A 0.34 0.34 0.0 0 1 173.93 92.07
  Z"
/>
<path fill="#ffee00" d="
  M 212.83 93.93
  A 0.31 0.30 39.0 0 1 213.43 93.87
  L 214.15 96.24
  A 2.06 2.04 -76.4 0 0 214.66 97.09
  Q 214.87 97.31 221.28 101.85
  Q 229.68 107.81 234.15 112.76
  C 236.10 114.91 237.68 119.64 238.12 123.61
  Q 238.50 126.93 240.13 130.66
  A 0.19 0.19 0.0 0 1 239.80 130.84
  C 235.10 124.09 225.30 122.42 217.40 121.33
  A 0.66 0.66 0.0 0 1 216.85 120.52
  Q 218.59 113.55 217.81 109.13
  A 3.45 3.43 -60.8 0 0 217.62 108.45
  L 215.75 103.64
  A 3.81 3.35 -76.9 0 0 215.38 102.95
  Q 212.49 98.80 212.83 93.93
  Z"
/>
<path fill="#ff7700" d="
  M 211.93 95.04
  Q 212.02 99.16 214.22 103.09
  Q 217.13 108.26 217.06 114.98
  A 2.21 1.58 62.2 0 1 217.02 115.27
  L 215.72 120.42
  A 0.85 0.84 51.4 0 1 214.06 120.23
  Q 213.91 114.57 210.15 109.28
  Q 207.92 106.14 206.98 103.76
  A 2.27 2.13 64.4 0 1 207.84 101.03
  C 209.50 100.07 210.76 96.22 211.51 94.93
  A 0.23 0.22 -30.2 0 1 211.93 95.04
  Z"
/>
<path fill="#ff7700" d="
  M 140.00 109.49
  Q 140.11 109.34 140.46 109.23
  A 0.21 0.21 0.0 0 1 140.70 109.54
  Q 140.55 109.78 140.36 109.89
  A 0.28 0.27 3.1 0 1 140.00 109.49
  Z"
/>
<path fill="#ff7700" d="
  M 98.03 117.22
  Q 98.04 117.23 97.99 122.72
  C 97.97 124.65 98.48 126.31 100.73 125.84
  Q 104.28 125.10 108.95 122.44
  A 3.38 3.16 -81.6 0 0 109.74 121.81
  Q 114.24 116.81 116.04 115.73
  Q 120.16 113.25 121.60 112.03
  A 0.60 0.60 0.0 0 1 122.44 112.09
  Q 124.27 114.17 127.95 114.66
  A 0.78 0.76 36.2 0 0 128.37 114.60
  L 136.86 110.85
  A 1.00 1.00 0.0 0 1 137.91 112.52
  L 130.87 118.54
  A 5.29 5.25 -6.6 0 0 129.67 120.04
  L 126.45 126.17
  A 1.00 0.66 -33.7 0 0 126.40 126.29
  Q 125.30 129.49 123.21 134.46
  Q 122.91 135.19 122.61 136.32
  C 122.33 137.41 121.52 138.04 121.19 139.22
  Q 119.97 143.71 119.98 145.93
  Q 120.00 147.95 119.33 150.57
  Q 118.90 152.28 119.05 155.26
  A 0.53 0.52 -60.0 0 1 118.06 155.53
  Q 117.10 153.67 116.84 151.54
  A 4.93 4.89 -62.7 0 0 116.28 149.77
  Q 115.24 147.81 115.19 147.06
  Q 114.64 139.63 115.11 137.56
  Q 115.75 134.72 116.10 131.35
  Q 116.33 129.13 118.34 125.15
  A 0.94 0.94 0.0 0 0 117.25 123.82
  L 116.29 124.09
  A 5.26 5.26 0.0 0 0 112.86 127.13
  C 111.94 129.35 111.40 132.05 110.02 134.45
  Q 105.62 142.09 104.12 143.85
  Q 100.79 147.76 97.87 153.14
  Q 96.54 155.61 94.29 156.96
  A 0.34 0.34 0.0 0 1 93.81 156.53
  Q 96.00 151.51 96.86 144.68
  A 0.64 0.64 0.0 0 0 96.12 143.97
  Q 94.98 144.16 94.55 145.05
  Q 93.41 147.42 91.23 149.55
  Q 88.45 152.26 87.48 153.67
  Q 85.89 155.95 82.60 158.92
  A 0.52 0.51 50.7 0 1 81.84 158.84
  Q 81.25 158.04 80.86 155.14
  Q 80.04 149.07 74.69 145.72
  A 2.36 2.34 3.2 0 1 73.85 144.79
  L 71.26 139.70
  A 1.22 1.22 0.0 0 0 69.04 139.79
  Q 68.99 139.90 69.23 140.74
  Q 70.81 146.23 69.63 150.64
  C 68.89 153.40 68.97 154.68 67.52 156.65
  A 0.20 0.20 0.0 0 1 67.16 156.60
  L 63.44 146.13
  A 4.42 2.78 61.5 0 1 63.27 145.55
  L 62.13 140.50
  A 4.33 3.82 41.4 0 1 62.03 139.70
  L 61.97 137.18
  A 1.70 1.69 65.0 0 1 62.39 136.01
  C 63.40 134.85 64.25 133.75 64.75 132.53
  Q 67.05 126.89 71.01 122.73
  A 0.88 0.87 28.4 0 1 71.83 122.49
  Q 77.03 123.71 77.84 123.93
  C 81.53 124.93 87.63 127.80 91.10 124.84
  C 93.08 123.14 97.51 119.90 97.28 117.63
  A 0.46 0.46 0.0 0 1 98.03 117.22
  Z"
/>
<path fill="#ffee00" d="
  M 249.14 115.49
  Q 250.68 118.82 254.05 121.18
  A 3.62 3.62 0.0 0 1 254.92 122.05
  Q 257.05 125.09 260.13 127.83
  A 9.10 8.85 -85.8 0 1 261.76 129.77
  L 266.56 137.48
  A 6.08 6.04 -68.0 0 1 267.30 139.24
  Q 268.29 143.37 269.01 149.49
  Q 269.68 155.17 267.26 160.45
  A 0.52 0.52 0.0 0 0 267.81 161.18
  L 268.24 161.12
  A 1.10 1.09 9.8 0 0 269.05 160.55
  Q 270.85 157.21 272.89 155.04
  Q 274.06 153.79 274.11 152.71
  C 274.19 150.98 275.62 150.86 276.07 149.32
  Q 276.47 147.96 278.02 146.27
  Q 283.98 139.77 289.95 135.96
  Q 292.13 134.56 292.97 133.46
  Q 295.01 130.75 295.28 130.24
  A 0.98 0.98 0.0 0 1 297.11 130.56
  C 297.47 133.16 295.08 136.95 293.55 139.12
  A 8.08 8.05 64.5 0 0 292.09 143.28
  Q 291.74 149.13 292.14 157.18
  Q 292.21 158.63 292.62 159.29
  A 0.93 0.93 0.0 0 0 294.30 159.07
  L 297.12 149.45
  A 0.49 0.49 0.0 0 1 298.05 149.42
  L 298.99 152.06
  A 1.77 1.74 38.2 0 1 299.09 152.84
  Q 298.53 159.78 303.89 167.31
  A 0.99 0.99 0.0 0 0 305.69 166.81
  L 306.12 161.03
  A 9.77 9.56 56.9 0 1 306.57 158.77
  Q 306.64 158.53 310.88 151.38
  Q 311.33 150.64 312.09 147.42
  A 3.74 3.69 69.2 0 1 312.65 146.15
  Q 314.67 143.19 315.95 138.75
  A 9.26 9.14 67.5 0 1 316.68 136.95
  Q 318.39 133.72 318.65 131.41
  C 318.90 129.22 319.42 125.54 321.30 124.16
  A 0.46 0.46 0.0 0 1 322.04 124.56
  Q 321.86 127.56 322.38 130.41
  Q 323.79 138.20 324.22 144.00
  Q 324.32 145.31 327.54 152.19
  A 2.34 2.27 -62.6 0 1 327.73 152.82
  L 328.33 156.94
  A 3.20 3.15 -69.5 0 0 329.04 158.53
  C 331.26 161.20 330.72 164.54 331.78 167.44
  Q 334.20 174.01 336.92 178.03
  Q 338.47 180.32 339.01 183.06
  A 3.42 3.29 -63.9 0 0 339.28 183.90
  Q 341.89 189.45 346.16 198.83
  Q 348.39 203.72 347.92 209.19
  A 0.34 0.34 0.0 0 1 347.28 209.32
  Q 337.83 191.79 324.04 178.28
  C 319.38 173.72 317.50 171.43 311.25 171.43
  Q 259.17 171.40 238.52 171.53
  Q 238.03 171.53 236.77 171.43
  A 0.76 0.76 0.0 0 1 236.09 170.54
  Q 239.05 153.76 240.67 135.11
  A 0.70 0.67 -22.7 0 1 240.84 134.72
  L 242.05 133.27
  A 2.94 2.90 -22.2 0 0 242.74 131.66
  Q 243.19 127.35 246.37 122.83
  A 4.84 4.65 71.3 0 0 247.06 121.36
  L 248.65 115.53
  A 0.26 0.26 0.0 0 1 249.14 115.49
  Z"
/>
<path fill="#ff7700" d="
  M 293.45 157.56
  A 0.16 0.15 -37.3 0 1 293.15 157.52
  Q 292.70 152.54 292.93 146.00
  C 293.07 142.03 293.27 140.92 295.26 138.14
  Q 296.12 136.94 297.65 133.53
  A 3.11 3.02 -36.0 0 0 297.90 132.10
  C 297.74 129.70 297.51 127.27 299.11 125.86
  C 300.15 124.93 299.92 123.60 301.09 122.48
  Q 302.86 120.79 303.45 117.94
  A 0.25 0.25 0.0 0 1 303.95 117.99
  Q 303.99 119.87 303.96 131.63
  C 303.96 134.07 304.35 135.72 304.82 137.98
  A 18.94 18.77 23.8 0 0 307.21 144.05
  C 308.17 145.61 310.73 148.29 309.66 150.60
  C 308.40 153.30 307.35 155.74 305.79 157.76
  C 304.33 159.62 305.15 164.61 304.96 166.44
  A 0.45 0.45 0.0 0 1 304.11 166.58
  Q 302.91 164.01 301.14 160.19
  Q 300.01 157.73 299.94 152.90
  C 299.92 150.79 299.50 149.57 297.93 148.47
  A 0.78 0.77 27.7 0 0 296.76 148.83
  L 293.45 157.56
  Z"
/>
<path fill="#000000" d="
  M 189.54 386.99
  Q 205.59 386.99 209.93 387.02
  A 1.11 1.09 71.9 0 1 210.82 387.48
  L 266.16 465.98
  A 1.20 1.20 0.0 0 1 266.23 467.26
  Q 265.44 468.66 263.52 469.57
  C 258.02 472.17 249.99 474.36 245.26 470.47
  Q 229.41 457.45 221.86 451.29
  A 0.20 0.20 0.0 0 0 221.54 451.46
  Q 222.67 464.96 223.73 478.24
  C 223.91 480.54 223.02 481.80 220.70 482.29
  C 210.54 484.42 198.03 484.59 189.52 484.59
  C 181.02 484.59 168.50 484.41 158.35 482.28
  C 156.03 481.79 155.14 480.53 155.32 478.23
  Q 156.38 464.95 157.52 451.45
  A 0.20 0.20 0.0 0 0 157.20 451.28
  Q 149.65 457.44 133.79 470.46
  C 129.06 474.35 121.03 472.16 115.53 469.55
  Q 113.61 468.64 112.82 467.24
  A 1.20 1.20 0.0 0 1 112.89 465.96
  L 168.25 387.48
  A 1.11 1.09 -71.9 0 1 169.14 387.01
  Q 173.48 386.99 189.54 386.99
  Z"
/>
</svg>
