<?xml version="1.0" encoding="UTF-8"?>
<svg xmlns="http://www.w3.org/2000/svg" xmlns:i="http://ns.adobe.com/AdobeIllustrator/10.0/" version="1.1" viewBox="0 0 455 455">
  <defs>
    <style>
      .cls-1 {
        fill: #5d2f88;
      }

      .cls-2 {
        fill: #fff;
      }
    </style>
  </defs>
  <!-- Generator: Adobe Illustrator 28.6.0, SVG Export Plug-In . SVG Version: 1.2.0 Build 709)  -->
  <g>
    <g id="Layer_1">
      <circle class="cls-1" cx="227.5" cy="227.5" r="227.5"/>
      <path class="cls-2" d="M149.8,300.7c6,4,12.7,5.6,19.2,3.8,8-2.2,13.6-8.9,16.3-17.8h13.2c-3.6,26.7-16.2,38.8-29.6,38.8s-23.2-13.4-19-24.8h0ZM264.3,336c-11.1-14-16.8-29.7-18.8-49.4h-13.3c-.7,25.4-2.1,39-4.7,52.9-2.6-13.8-4.1-27.5-4.7-52.9h-13.3c-1.9,19.7-7.6,35.4-18.8,49.4,0,0,15.4,18.2,36.8,28.9,21.4-10.7,36.8-28.9,36.8-28.9ZM286.3,325.5c15.5,0,23.2-13.4,19-24.8-6,4-12.7,5.6-19.2,3.8-8-2.2-13.6-8.9-16.3-17.8h-13.2c3.6,26.7,16.2,38.8,29.6,38.8h0ZM134.9,272.3c-22.6-2.5-40.3-21.6-40.3-44.7s20.3-45,45.3-45,57.5,37.4,59.4,81.9h10.9c-1.8-51.4-29.3-71.4-29.3-105.5s37.9-70.1,46.8-78.9c8.8,8.7,46.8,41.9,46.8,78.9s-27.5,54.1-29.3,105.5h10.9c1.9-44.6,24.6-81.9,59.4-81.9s45.3,20.2,45.3,45-17.6,42.2-40.3,44.7c8.4-16.8,1.1-34.1-15.4-37.4-14.6-2.9-31.5,7.3-35.8,29.7h13.8c1.3,1.8,2.3,4,2.3,6.5s-.9,4.7-2.3,6.5h-110.5c-1.3-1.8-2.3-4-2.3-6.5s.9-4.7,2.3-6.5h13.8c-4.3-22.4-21.3-32.5-35.8-29.7-16.5,3.2-23.8,20.5-15.3,37.4h-.2ZM315.5,213.2l-9.9,9.7,13.8-2.2,6.3,12.4,2.2-13.7,13.8-2.1-12.5-6.3,2.2-13.7-9.8,9.8-12.4-6.3,6.3,12.4ZM222.3,238c0,9.8,0,18.6,0,26.5h10.3c0-7.9,0-16.7,0-26.5,0-59.3-1.1-98.2-5.3-118-4.2,19.7-5.3,58.7-5.3,118h0ZM135.8,220.8l13.8,2.2-9.9-9.7,6.3-12.4-12.4,6.3-9.8-9.8,2.2,13.7-12.5,6.3,13.8,2.1,2.2,13.7,6.3-12.4ZM188.5,408.8c0-9.7,7.8-17.6,17.5-17.9,6.1-.3,11.5-2.3,16-4.7-4.6-2.5-10-5-15.5-5-15.2,0-27.5,12.4-27.5,27.5s12.4,27.6,27.5,27.6,10.9-2.4,15.5-5c-4.5-2.4-10-4.4-16-4.7-9.6-.3-17.5-8.2-17.5-17.9ZM194.3,405.8c1.9,0,4.2.2,7.2.2,11.5,0,22.3-3.2,33-9.6,10-6.1,11.4-5.6,20-5.6s9.2,0,14.1-.9c-5-5.3-12.1-8.7-20-8.7s-10.8,2.6-24.1,9.7c-5.6,3-12.1,5.1-18.4,5.3-5.7.2-10.6,4.3-11.8,9.6h0ZM234.4,421.2c-10.7-6.5-21.4-9.7-33-9.7s-5.3,0-7.2.2c1.2,5.3,6.1,9.4,11.8,9.6,6.3.2,12.8,2.3,18.4,5.3,13.3,7.1,16.7,9.7,24.1,9.7s14.9-3.3,20-8.7c-4.9-.8-9.8-.9-14.1-.9-8.6,0-10.1.4-20-5.6h0ZM356.7,98.4c-34.5-34.5-80.3-53.5-129.2-53.5s-94.6,19-129.2,53.5c-34.5,34.5-53.5,80.4-53.5,129.2s19,94.7,53.5,129.2c21.5,21.5,47.4,37,75.7,45.6.6-3.2,1.8-6.3,3.2-9.1-26.9-8.2-51.7-22.8-72.1-43.3-32.7-32.7-50.7-76.1-50.7-122.4s18-89.6,50.7-122.4c32.7-32.7,76.1-50.7,122.4-50.7s89.6,18,122.4,50.7c32.7,32.7,50.7,76.1,50.7,122.4s-18,89.6-50.7,122.4c-20.2,20.2-46.1,35.4-71,43-3.5,1.1-10,3.4-24.5,3.4s-7.2-.2-9.5.7c-3.3,1.1-10.5,6-15.1,8,4.6.6,13.3.8,21.6.7,18.2,0,30.5-3.7,30.5-3.7,27.9-8.7,53.5-24,74.7-45.4,34.5-34.5,53.5-80.3,53.5-129.2s-19-94.6-53.5-129.2h0ZM154,422.7c-2,1.7,2.3,9.7,4.1,8.8,3.3-1.6,12.3-5,19.2-7-1.5-2.9-2.6-5.9-3.2-9.1-2.6.8-14.2,4.5-20.1,7.5h0ZM300.4,422.3c-6-2.6-12.2-4.9-18.4-6.8,0,0-12.3-3.8-30.5-3.7-8.3,0-17,.2-21.6.7,4.6,2,11.8,6.9,15.1,8,2.3,1,5.4.7,9.5.7,14.5,0,21,2.3,24.5,3.4,5.8,1.7,11.7,3.9,17.5,6.5,1.9,1,6.6-7.6,3.9-8.9h0Z"/>
    </g>
  </g>
</svg>
